<svg xmlns="http://www.w3.org/2000/svg" width="555" height="555" fill="none"><path fill="#E3F0FF" d="M287.952 470.362c87.716 0 158.823-3.644 158.823-8.14 0-4.495-71.107-8.14-158.823-8.14-87.715 0-158.822 3.645-158.822 8.14 0 4.496 71.107 8.14 158.822 8.14Z"/><path fill="#FF8D76" d="M357.513 460.557s-3.053-5.179 3.515-7.677c6.567-2.497 21.46-4.07 19.98-9.157-1.48-5.088-6.568-14.246 6.197-22.941 12.673-8.602 10.175-12.302 11.933-11.47 1.757.833 6.012 5.921 5.272 10.731-.74 4.81-4.255 6.012-2.59 7.584 1.665 1.48 7.308-3.977 7.308-9.064 0-5.088.277-8.788 3.977-6.661 3.608 2.128 3.145 5.18 5.735 2.868 2.59-2.313 4.255-6.937 3.145-13.782-1.017-6.845 2.313-11.933 7.123-12.118 4.81-.185 14.8 8.788 15.632 22.385.74 13.598-7.677 24.698-6.475 28.12 1.203 3.515 6.475 1.85 9.25-3.145 2.683-4.995 9.343 2.868 7.585 9.713-1.85 6.845-3.515 14.337-7.585 15.725-4.07 1.387-76.312.277-81.77.277-5.55 0-7.215.092-8.232-1.388Z"/><path fill="#FEC272" d="M374.625 458.245c3.792-.092 15.17 0 13.782-6.382-1.387-6.383-3.792-9.065.185-14.523 3.978-5.457 8.325-2.127 8.51.648.185 2.682-.925 8.14 3.793 7.4 4.717-.74 4.81-13.505 8.787-14.523 3.978-1.017 5.18 2.868 5.735 6.66.648 3.793 5.273-.277 7.123-4.81 1.85-4.532 1.665-10.73 5.92-12.58 4.255-1.85 6.382 8.788 4.532 18.5-1.85 9.713-3.33 14.523-1.017 15.448 2.312.925 6.845-1.388 8.972 2.127 2.128 3.515-1.017 5.92-9.712 5.92h-59.663c-7.122-.092-5.642-3.7 3.053-3.885ZM122.84 311.17c-2.775 4.902-10.268 2.405-13.783-3.145-3.515-5.643-8.787-2.313-7.585 8.787 1.203 11.008 5.643 18.315 13.598 23.588 7.955 5.272 16.927 7.4 14.8 11.007-2.128 3.608-5.458 11.84 6.475 16.003 11.932 4.255 29.23 2.312 38.11-7.678 8.972-9.99 8.972-32.005 4.81-43.845-4.07-11.84-12.303-19.332-14.985-24.79-2.683-5.457-7.678-1.665-6.845 3.423.925 5.087 2.59 8.047-1.018 8.14-3.607.092-6.012-12.303-16.835-14.615-10.822-2.405-12.58 4.07-19.425.37-6.845-3.793-9.342-3.423-9.805 2.497-.462 6.013 4.07 12.58 7.955 13.598 5.828 1.48 6.383 3.33 4.533 6.66Z"/><path fill="#FF8D76" d="M138.75 316.905c1.017 5.273-3.33 11.007-10.915 7.678-7.585-3.331-10.268-.648-6.383 6.382 3.885 7.03 12.58 13.505 17.298 15.91 4.717 2.405 1.48 5.92 2.127 9.527.648 3.608 11.193 9.066 21.83-2.589 10.638-11.655 10.73-26.455 7.678-37.278-3.053-10.73-7.123-9.065-7.123-5.458 0 3.608.463 10.731-2.312 9.991-2.683-.74-6.475-6.013-9.99-12.118-6.013-10.452-20.72-18.962-22.663-10.915-1.387 5.643 8.973 10.823 10.453 18.87Z"/><path fill="#FEC272" d="M353.258 282.402c-13.32-10.822-25.438-30.247-28.12-65.12-1.943-25.252 6.475-36.445 15.17-40.607 8.602-4.07 8.602-8.14 12.487-7.03 3.885 1.11 2.96 9.99-.647 14.337-3.608 4.348-4.07 11.1 1.387 11.563 5.458.462 6.105-9.343 7.03-18.408.925-9.065 3.145-12.672 13.875-17.667 10.73-4.995 16.373-8.603 18.593-15.91 2.312-7.308 4.532-6.845 8.602-4.81s5.458 11.562 2.035 15.17c-3.422 3.607-6.105 6.382-5.642 9.527.462 3.145 2.035-1.85 11.377-6.382 9.343-4.533 13.135-18.13 14.338-25.16 1.202-7.03 3.607-8.88 10.175-5.643 6.567 3.145 14.985 15.633 12.672 32.653-2.312 17.02-13.875 28.583-15.632 37.74-1.85 9.065 3.885 11.1 9.805 7.677 5.92-3.422 2.682-13.597 5.92-18.407 3.145-4.81 12.95 5.457 15.91 22.663 2.96 17.205 7.492 44.585-18.13 70.207-26.455 26.27-65.213 24.79-91.205 3.607Z"/><path fill="#FF8D76" d="M363.155 201.65c6.475-10.545 13.135-10.175 13.412-6.382.185 3.885-5.18 9.342-2.497 12.025 2.682 2.682 6.382-2.035 7.492-8.88 1.11-6.845 7.678-10.638 14.523-13.875 6.845-3.145 9.805-9.99 13.135-10.175 3.33-.185 4.532 7.03 2.312 11.377-2.312 4.348-10.452 6.568-10.452 12.673s6.012 6.475 8.602 1.387c2.59-5.087 1.943-7.862 7.4-8.325 5.458-.462 4.995 12.58 1.388 17.39-3.608 4.81-9.805 8.603-6.938 13.32 2.868 4.718 8.14 0 11.008-3.145 2.867-3.145 8.602.278 9.527 6.383.925 6.012-10.915 16.372-10.175 21.645.74 5.272 5.458 3.977 8.14.277 2.683-3.607 6.198 1.018 5.273 7.123-.925 6.105-17.39 26.362-46.805 18.592-42.735-11.192-36.908-52.447-25.345-71.41Z"/><path fill="#E1ECFF" d="m209.42 189.07 95.83-83.528c.925-.832 2.313-.74 3.145.185.833.925.74 2.405-.185 3.238l-94.257 86.21-4.533-6.105ZM200.448 206.09l-52.54-115.81c-.555-1.11 0-2.498 1.11-2.96 1.11-.555 2.497-.092 3.052 1.11l55.5 115.163-7.122 2.497Z"/><path fill="#10411B" d="M201.003 215.247c9.553 0 17.297-7.744 17.297-17.297s-7.744-17.297-17.297-17.297c-9.554 0-17.298 7.744-17.298 17.297s7.744 17.297 17.298 17.297Z"/><path fill="#1C6F2F" d="M200.263 192.307c4.597 0 8.325-2.319 8.325-5.179 0-2.861-3.728-5.181-8.325-5.181-4.598 0-8.325 2.32-8.325 5.181 0 2.86 3.727 5.179 8.325 5.179Z"/><path fill="#04671B" d="M337.163 411.07c-.278 7.862-9.435 8.14-13.968-.925-2.127-4.348-5.642-11.748-8.695-18.223-3.33-7.122-6.105-13.227-6.105-13.227l26.363 2.682s.555 4.625 1.202 10.453c.74 6.66 1.388 14.985 1.203 19.24Z"/><path fill="#034A14" d="M335.96 391.83c-1.295.278-2.775.555-4.347.832-5.458.925-11.748.278-17.02-.739-3.33-7.123-6.105-13.228-6.105-13.228l26.362 2.682c-.092 0 .555 4.626 1.11 10.453Z"/><path fill="#04671B" d="M158.36 380.915c-2.775 7.4 5.458 11.192 13.135 4.625 3.7-3.145 9.805-8.602 15.17-13.412 5.828-5.273 10.823-9.805 10.823-9.805l-25.345-7.863s-2.313 4.07-5.18 9.158c-3.145 6.012-7.123 13.32-8.603 17.297Z"/><path fill="#034A14" d="M167.055 363.71a42.6 42.6 0 0 0 3.7 2.497c4.625 2.96 10.638 4.81 16.003 6.013a12533.89 12533.89 0 0 0 10.822-9.805l-25.345-7.863s-2.312 4.071-5.18 9.158Z"/><path fill="#10411B" d="M404.41 281.2c-3.515 27.658-6.66 56.98-12.672 77.238a65.871 65.871 0 0 1-2.498 7.214c-7.678 19.98-21.645 15.91-39.683 17.575-18.037 1.665-23.495 1.48-23.495 1.48l4.626-28.12 22.014-132.83 43.198 3.793s2.313 1.665 4.255 4.81c2.035 3.237 8.233 17.575 4.255 48.84Z"/><path fill="#034A14" d="M391.738 358.437a65.68 65.68 0 0 1-2.498 7.215c-7.678 19.98-21.645 15.91-39.683 17.575-18.037 1.665-23.495 1.48-23.495 1.48l4.626-28.12 61.05 1.85Z"/><path fill="#055016" d="M166.037 204.055s11.285-5.92 24.05-6.383c12.765-.462 113.775 9.62 146.798 13.228 33.022 3.607 47.267 8.14 53.927 11.655 6.66 3.515 9.343 9.805 9.343 9.805l-53.003-4.81-181.115-23.495Z"/><path fill="#1C6F2F" d="m145.873 326.618 6.752-104.156c.74-12.025 11.47-20.997 23.403-19.61l171.68 19.425c10.73 1.203 18.407 10.823 17.39 21.46L353.813 357.42c-1.758 17.483-17.945 29.785-35.243 26.918l-146.797-24.883c-15.725-2.682-26.918-16.927-25.9-32.837Z"/><path fill="#FEC272" d="m306.638 360.935 12.395-120.158c.555-5.087 5.087-8.787 10.175-8.232l21.552 2.405c5.088.555 8.695 5.18 8.14 10.175l-13.875 120.25c-.555 5.087-5.272 8.695-10.36 8.048l-19.98-2.498c-4.995-.555-8.602-4.995-8.047-9.99Z"/><path fill="#F9A95A" d="M353.442 258.723c0 3.885-1.387 7.4-3.607 10.175-1.573 1.85-3.423 3.422-5.643 4.44-2.035 1.017-4.347 1.48-6.845 1.48-8.88 0-16.095-7.215-16.095-16.095 0-3.7 1.295-7.123 3.33-9.805 1.48-1.943 3.33-3.515 5.55-4.625 2.128-1.11 4.625-1.666 7.215-1.666 8.788 0 16.095 7.216 16.095 16.096Z"/><path fill="#28A745" d="M352.61 256.04c0 3.515-1.202 6.752-3.33 9.342a13.905 13.905 0 0 1-5.18 4.07c-1.943.925-3.977 1.388-6.29 1.388-8.14 0-14.8-6.568-14.8-14.8 0-3.423 1.11-6.475 3.052-8.973 1.388-1.757 3.053-3.237 5.088-4.162a14.613 14.613 0 0 1 6.568-1.573 14.669 14.669 0 0 1 14.892 14.708Z"/><path fill="#BDFFCC" d="M349.372 265.382a13.905 13.905 0 0 1-5.18 4.07l-17.945-22.384c1.388-1.758 3.053-3.238 5.088-4.163l18.037 22.477Z"/><path fill="#F9A95A" d="M338.92 312.187c-3.515 1.388-7.122 1.48-10.452.463a15.078 15.078 0 0 1-6.105-3.515c-1.665-1.48-2.96-3.422-3.885-5.55-3.238-8.047.555-17.205 8.602-20.442 3.33-1.388 6.845-1.48 10.083-.555a16.833 16.833 0 0 1 6.197 3.33c1.758 1.572 3.238 3.514 4.163 5.827 3.33 8.047-.555 17.205-8.603 20.442Z"/><path fill="#28A745" d="M338.92 308.395a15.196 15.196 0 0 1-9.897.462 15.348 15.348 0 0 1-5.735-3.237c-1.573-1.388-2.775-3.145-3.608-5.272-3.052-7.585.555-16.188 8.048-19.241 3.145-1.295 6.475-1.387 9.527-.555 2.128.555 4.07 1.666 5.828 3.146a15.238 15.238 0 0 1 3.977 5.55c3.053 7.492-.555 16.094-8.14 19.147Z"/><path fill="#BDFFCC" d="m343.082 283.605-14.06 25.252a15.355 15.355 0 0 1-5.735-3.237l13.968-25.068c2.22.555 4.162 1.573 5.827 3.053Z"/><path fill="#10411B" d="m339.475 329.485-19.425-2.96c-1.295-.185-2.22-1.387-2.035-2.682.185-1.295 1.295-2.221 2.59-2.036l19.425 2.961c1.295.185 2.22 1.387 2.035 2.682-.185 1.295-1.388 2.22-2.59 2.035ZM338.18 340.215l-19.425-2.96c-1.295-.185-2.22-1.387-2.035-2.682.185-1.295 1.295-2.22 2.59-2.035l19.425 2.96c1.295.185 2.22 1.387 2.035 2.682-.093 1.388-1.295 2.22-2.59 2.035ZM336.977 351.038l-19.425-2.961c-1.295-.185-2.22-1.387-2.035-2.682.185-1.295 1.295-2.22 2.59-2.035l19.425 2.96c1.295.185 2.22 1.387 2.035 2.682-.092 1.295-1.295 2.221-2.59 2.036ZM335.775 361.768l-19.425-2.961c-1.295-.185-2.22-1.387-2.035-2.682.185-1.295 1.295-2.22 2.59-2.035l19.425 2.96c1.295.185 2.22 1.387 2.035 2.682-.093 1.295-1.295 2.221-2.59 2.036Z"/><path fill="#F8FBFF" d="m311.17 244.293-.555 5.827-9.805 103.415c-.37 3.515-1.85 6.66-4.162 8.972-3.238 3.33-7.955 5.088-12.95 4.255L173.16 349.28c-11.562-1.85-19.887-12.21-19.147-23.957l5.92-92.686.185-3.052.37-5.088c.462-7.03 6.752-12.302 13.782-11.47l123.95 14.893c7.955 1.11 13.69 8.325 12.95 16.373Z"/><path fill="#BDFFCC" d="m311.17 244.293-.555 5.827-150.497-20.443.37-5.087c.462-7.03 6.752-12.303 13.782-11.47l123.95 14.892c7.955 1.018 13.69 8.233 12.95 16.281Z"/><path fill="#fff" d="M175.195 223.665c-.278 1.85-2.035 3.238-3.978 2.96-1.942-.277-3.422-1.942-3.145-3.793.278-1.85 2.035-3.237 3.978-2.959 1.942.277 3.33 1.942 3.145 3.792ZM189.81 225.423c-.278 1.85-2.035 3.237-3.978 2.959-1.942-.277-3.422-1.942-3.145-3.792.278-1.85 2.035-3.237 3.978-2.96 1.942.278 3.33 1.943 3.145 3.793ZM204.332 227.18c-.277 1.85-2.035 3.238-3.977 2.96-1.943-.277-3.423-1.942-3.145-3.792.277-1.85 2.035-3.238 3.977-2.96 2.035.185 3.423 1.942 3.145 3.792Z"/><path fill="#E1ECFF" d="M296.648 362.507c-3.238 3.33-7.955 5.088-12.95 4.256L173.16 349.28c-11.562-1.85-19.887-12.21-19.147-23.957l5.92-92.685c1.942 32.097-2.96 67.894 14.892 88.244 26.178 29.878 49.95 29.693 121.823 41.625Z"/><path fill="#28A745" d="m207.478 267.695-4.625-.74c-1.203-.185-2.22.555-2.313 1.757l-1.387 12.673-5.828-.648c-1.017-.185-1.665-1.202-1.295-2.127l4.163-10.175c.555-1.295-.37-2.775-1.758-2.96l-3.792-.648c-.925-.185-1.85.371-2.22 1.203l-6.568 16.28c-.74 1.85.463 3.977 2.498 4.347l13.967 2.405-2.497 22.57c-.093 1.203.74 2.313 1.942 2.498l4.348.647c1.11.185 2.127-.555 2.312-1.757l4.995-42.735c.093-1.202-.74-2.405-1.942-2.59ZM273.43 278.702l-4.717-.832c-1.203-.185-2.313.647-2.405 1.757l-1.48 13.135-6.105-.647c-1.018-.185-1.665-1.295-1.295-2.22l4.255-10.545c.555-1.295-.37-2.867-1.85-3.145l-3.885-.648a2.11 2.11 0 0 0-2.313 1.203l-6.845 16.835c-.74 1.942.555 4.162 2.59 4.532l14.43 2.405-2.59 23.403c-.092 1.203.74 2.405 2.035 2.59l4.533.648c1.202.185 2.22-.648 2.405-1.758l5.18-44.308c.185-1.11-.74-2.22-1.943-2.405ZM230.048 270.655c-9.158-.832-14.523 4.347-16.743 19.61-2.775 18.962 2.22 26.64 11.47 28.768 12.58 2.96 14.8-7.863 17.298-23.865 2.497-16.003-2.868-23.68-12.025-24.513Zm4.532 24.143c-1.202 11.192-4.625 17.575-8.787 16.557-4.44-1.11-6.105-6.29-4.81-19.517 1.017-10.638 3.607-14.245 7.955-13.875 4.347.462 6.845 5.642 5.642 16.835Z"/><path fill="#FF8D76" d="M350.76 150.775c-4.44-.092-6.382-10.73-2.22-13.412 4.163-2.683 7.123 2.775 7.215 6.752.093 3.978-1.017 6.845-4.995 6.66Z"/><path fill="#FEC272" d="M402.098 119.972c-4.07-.092-5.828-9.712-1.943-12.117 3.793-2.405 6.383 2.497 6.475 6.105.093 3.607-.925 6.105-4.532 6.012Z"/><path fill="#FF8D76" d="M442.705 100.363c-4.162-.093-6.012-9.99-2.035-12.488 3.978-2.498 6.568 2.59 6.753 6.29.185 3.7-1.018 6.383-4.718 6.198Z"/><path fill="#FEC272" d="M476.467 176.675c-3.515-.925-3.052-9.897.833-11.192s5.18 3.515 4.533 6.752c-.648 3.238-2.128 5.273-5.366 4.44ZM122.008 270.47c-4.348-.648-5.18-11.285-.648-13.413 4.533-2.127 6.66 3.515 6.383 7.4-.37 3.978-1.758 6.475-5.735 6.013Z"/><path fill="#FF8D76" d="M109.52 236.245c-3.423-.463-3.978-8.787-.555-10.452 3.422-1.665 5.18 2.682 4.902 5.734-.185 3.145-1.295 5.18-4.347 4.718Z"/><path fill="#FEC272" d="M84.453 291.19c-5.55-.74-6.568-14.43-.833-17.112 5.642-2.683 8.51 4.44 8.14 9.527-.463 4.995-2.22 8.233-7.308 7.585ZM142.635 199.43l-44.03-35.058-7.955 14.523 51.985 20.535ZM144.763 189.532l-42.735-41.717 16.002-10.36 26.733 52.077ZM138.473 138.935l14.985 46.62-1.48-48.007-13.505 1.387Z"/></svg>