<svg width="170" height="240" viewBox="0 0 170 240" fill="none" xmlns="http://www.w3.org/2000/svg">
<path d="M104.369 200.895C121.895 200.895 139.026 195.698 153.598 185.961C168.17 176.225 179.527 162.386 186.234 146.195C192.94 130.003 194.695 112.187 191.276 94.9984C187.857 77.8099 179.418 62.0212 167.026 49.6289C154.633 37.2367 138.845 28.7974 121.656 25.3784C104.467 21.9594 86.6511 23.7142 70.4598 30.4208C54.2686 37.1275 40.4297 48.4847 30.6931 63.0565C20.9566 77.6282 15.7598 94.76 15.7598 112.285C15.7598 135.786 25.0954 158.324 41.7129 174.942C58.3304 191.559 80.8685 200.895 104.369 200.895Z" fill="url(#paint0_linear_551_51135)"/>
<path fill-rule="evenodd" clip-rule="evenodd" d="M102.608 154.707C102.608 152.949 103.306 151.263 104.549 150.02C105.792 148.777 107.478 148.078 109.236 148.078H147.685C152.746 148.012 157.698 149.551 161.83 152.474C165.693 155.317 168.783 159.782 168.783 165.329C168.783 170.876 165.693 175.372 161.83 178.184C157.699 181.11 152.747 182.651 147.685 182.587H56.3178C54.5598 182.587 52.8739 181.889 51.6308 180.646C50.3878 179.403 49.6895 177.717 49.6895 175.959C49.6895 174.201 50.3878 172.515 51.6308 171.272C52.8739 170.029 54.5598 169.331 56.3178 169.331H147.685C149.922 169.389 152.122 168.752 153.981 167.507C155.341 166.503 155.526 165.661 155.526 165.329C155.526 164.997 155.356 164.155 153.981 163.15C152.122 161.906 149.922 161.269 147.685 161.327L108.85 160.029C105.188 160.029 102.608 158.361 102.608 154.707Z" fill="url(#paint1_linear_551_51135)"/>
<path fill-rule="evenodd" clip-rule="evenodd" d="M162.927 75.5529C163.352 73.9637 164.291 72.5599 165.598 71.5607C166.905 70.5614 168.506 70.0229 170.151 70.0293H200.279C201.278 69.9971 202.273 70.166 203.205 70.526C204.137 70.886 204.987 71.4297 205.705 72.1247C206.423 72.8198 206.994 73.6521 207.384 74.5721C207.773 75.4921 207.974 76.4811 207.974 77.4803C207.974 78.4795 207.773 79.4685 207.384 80.3885C206.994 81.3086 206.423 82.1409 205.705 82.8359C204.987 83.531 204.137 84.0747 203.205 84.4347C202.273 84.7946 201.278 84.9636 200.279 84.9314H175.844L167.153 117.44C166.902 118.388 166.466 119.277 165.87 120.056C165.275 120.835 164.531 121.489 163.682 121.981C162.833 122.472 161.896 122.791 160.924 122.92C159.951 123.048 158.963 122.984 158.016 122.729C157.068 122.475 156.181 122.037 155.403 121.439C154.625 120.841 153.974 120.096 153.485 119.246C152.996 118.395 152.679 117.457 152.554 116.484C152.428 115.511 152.495 114.523 152.752 113.577L162.927 75.5529Z" fill="url(#paint2_linear_551_51135)"/>
<path d="M156.483 47.6641H66.0966L58.9043 63.2538H149.291L156.483 47.6641Z" fill="url(#paint3_linear_551_51135)"/>
<path d="M110.936 45.3086H51.791L58.906 63.2545H118.043L110.936 45.3086Z" fill="url(#paint4_linear_551_51135)"/>
<path d="M157.69 45.3086H125.205L118.066 63.2545H150.513L157.69 45.3086Z" fill="url(#paint5_linear_551_51135)"/>
<path d="M150.559 63.2539H91.4219V122.399H150.559V63.2539Z" fill="url(#paint6_linear_551_51135)"/>
<path d="M118.073 63.2539H58.9043V122.399H118.049L118.073 63.2539Z" fill="url(#paint7_linear_551_51135)"/>
<path d="M78.3881 205.501C81.5815 205.501 84.7031 204.554 87.3583 202.78C90.0135 201.006 92.0829 198.484 93.305 195.534C94.527 192.583 94.8468 189.337 94.2238 186.205C93.6008 183.073 92.063 180.196 89.805 177.938C87.547 175.68 84.67 174.142 81.538 173.519C78.406 172.896 75.1596 173.216 72.2093 174.438C69.2591 175.66 66.7374 177.73 64.9633 180.385C63.1891 183.04 62.2422 186.162 62.2422 189.355C62.2422 193.637 63.9433 197.744 66.9712 200.772C69.9992 203.8 74.1059 205.501 78.3881 205.501Z" fill="#28D920"/>
<path d="M158.561 90.0137H47.3163C38.9729 90.0137 32.8158 97.0901 34.7008 104.491L43.7008 148.054C45.0682 153.392 50.2983 157.185 56.3163 157.185L154.428 163.536L171.161 104.537C175.286 92.4317 166.881 90.0137 158.561 90.0137Z" fill="url(#paint8_linear_551_51135)"/>
<path d="M77.9475 197.497C79.5518 197.497 81.1201 197.021 82.4541 196.13C83.788 195.238 84.8277 193.971 85.4417 192.489C86.0556 191.007 86.2162 189.376 85.9032 187.803C85.5903 186.229 84.8177 184.784 83.6833 183.649C82.5489 182.515 81.1035 181.742 79.53 181.429C77.9565 181.116 76.3256 181.277 74.8434 181.891C73.3612 182.505 72.0943 183.545 71.203 184.878C70.3117 186.212 69.8359 187.781 69.8359 189.385C69.8359 191.536 70.6905 193.6 72.2118 195.121C73.733 196.642 75.7962 197.497 77.9475 197.497Z" fill="url(#paint9_linear_551_51135)"/>
<path d="M116.074 123.479C117.3 123.493 118.471 123.993 119.33 124.869C120.189 125.745 120.665 126.926 120.655 128.153L120.253 161.959C120.253 162.572 120.131 163.179 119.895 163.745C119.659 164.311 119.312 164.824 118.876 165.255C118.44 165.686 117.923 166.027 117.354 166.257C116.786 166.486 116.177 166.601 115.564 166.594C114.337 166.579 113.166 166.079 112.307 165.203C111.449 164.327 110.972 163.147 110.983 161.92L111.4 128.153C111.395 127.537 111.512 126.927 111.745 126.358C111.978 125.788 112.322 125.271 112.757 124.836C113.192 124.401 113.71 124.057 114.279 123.824C114.848 123.591 115.458 123.474 116.074 123.479Z" fill="url(#paint10_linear_551_51135)"/>
<path d="M192.152 96.4642V98.0093C192.152 99.0337 191.745 100.016 191.021 100.741C190.296 101.465 189.314 101.872 188.289 101.872L32.7865 102.266C31.762 102.266 30.7796 101.859 30.0552 101.135C29.3308 100.41 28.9238 99.4277 28.9238 98.4033V96.8582C28.9238 95.8338 29.3308 94.8513 30.0552 94.1269C30.7796 93.4025 31.762 92.9956 32.7865 92.9956L188.289 92.6016C189.314 92.6016 190.296 93.0085 191.021 93.7329C191.745 94.4573 192.152 95.4398 192.152 96.4642Z" fill="#28D920"/>
<path d="M142.292 123.596C143.511 123.612 144.674 124.108 145.53 124.975C146.386 125.843 146.865 127.013 146.865 128.231L146.456 161.991C146.451 162.602 146.325 163.205 146.086 163.767C145.847 164.329 145.499 164.838 145.063 165.266C144.626 165.693 144.11 166.029 143.543 166.256C142.976 166.483 142.37 166.596 141.759 166.588C140.54 166.571 139.377 166.076 138.521 165.208C137.665 164.341 137.185 163.171 137.186 161.952L137.595 128.193C137.6 127.582 137.726 126.978 137.965 126.416C138.204 125.854 138.552 125.345 138.988 124.918C139.425 124.491 139.941 124.154 140.508 123.927C141.075 123.701 141.681 123.588 142.292 123.596Z" fill="url(#paint11_linear_551_51135)"/>
<path d="M89.8918 123.372C91.1103 123.388 92.2735 123.884 93.1295 124.751C93.9854 125.619 94.4653 126.788 94.4651 128.007L94.0557 161.767C94.0507 162.377 93.925 162.981 93.6859 163.543C93.4469 164.105 93.0991 164.614 92.6626 165.041C92.2262 165.468 91.7096 165.805 91.1426 166.032C90.5756 166.259 89.9694 166.371 89.3587 166.363C88.1334 166.347 86.9644 165.846 86.1074 164.97C85.2503 164.094 84.775 162.915 84.7853 161.689L85.1716 127.968C85.1766 127.356 85.303 126.75 85.5435 126.187C85.784 125.623 86.1339 125.113 86.5728 124.686C87.0118 124.258 87.5311 123.922 88.1008 123.696C88.6705 123.471 89.2792 123.361 89.8918 123.372Z" fill="url(#paint12_linear_551_51135)"/>
<path d="M63.4093 123.371C64.6293 123.386 65.7944 123.88 66.652 124.748C67.5096 125.616 67.9905 126.787 67.9905 128.007L67.5733 161.766C67.5682 162.376 67.4428 162.979 67.2042 163.541C66.9657 164.102 66.6186 164.611 66.1829 165.038C65.7473 165.465 65.2316 165.802 64.6655 166.029C64.0994 166.257 63.494 166.37 62.884 166.363C61.6574 166.349 60.4864 165.849 59.6277 164.973C58.769 164.096 58.2926 162.916 58.3029 161.689L58.7201 127.929C58.7404 126.704 59.2452 125.537 60.1239 124.682C61.0027 123.828 62.1839 123.357 63.4093 123.371Z" fill="url(#paint13_linear_551_51135)"/>
<path fill-rule="evenodd" clip-rule="evenodd" d="M136.545 2.88026C135.386 0.90258 133.324 -0.0244582 131.864 0.802151C130.404 1.62876 130.149 3.89228 131.277 5.89314L131.369 6.05537C130.945 6.1878 130.563 6.43069 130.263 6.75918C129.963 7.08767 129.755 7.48997 129.662 7.9249C129.314 9.21503 129.793 10.4588 130.744 10.7215C131.694 10.9841 132.737 10.1498 133.061 8.86739C133.149 8.53232 133.185 8.1859 133.169 7.83992C133.579 8.09786 134.048 8.24551 134.531 8.26853C135.014 8.29154 135.495 8.18913 135.927 7.97125C136.289 7.75261 136.594 7.45201 136.818 7.09371C137.042 6.73541 137.179 6.32946 137.217 5.90859C137.417 6.01732 137.63 6.10038 137.851 6.1558C139.133 6.51116 140.377 6.02447 140.64 5.08198C140.902 4.13949 140.068 3.08885 138.786 2.76438C138.425 2.65152 138.044 2.61658 137.668 2.66185C137.293 2.70713 136.931 2.83161 136.607 3.02704L136.545 2.88026Z" fill="url(#paint14_linear_551_51135)"/>
<path fill-rule="evenodd" clip-rule="evenodd" d="M69.7204 10.6372C69.4331 10.96 69.073 11.2096 68.67 11.3655C68.2669 11.5213 67.8326 11.5789 67.4028 11.5334C66.901 11.4245 66.4376 11.1828 66.0612 10.8335C65.6847 10.4842 65.4091 10.0402 65.2629 9.54795C65.0749 9.8053 64.8482 10.032 64.5908 10.2201C63.517 10.9926 62.1805 10.9926 61.6011 10.2201C61.0217 9.44752 61.4234 8.14967 62.4973 7.36941C62.8447 7.07784 63.266 6.88814 63.7146 6.82133C64.1632 6.75451 64.6216 6.81319 65.0389 6.99087C65.3943 4.75052 67.0166 3.12821 68.6698 3.39859C70.323 3.66898 71.3428 5.60031 71.0415 7.80975C71.4106 7.87266 71.7629 8.01072 72.0765 8.21537C72.3902 8.42001 72.6584 8.68689 72.8646 8.99945C73.6372 10.0733 73.6372 11.4098 72.8646 11.9892C72.0921 12.5685 70.802 12.1668 70.014 11.093C69.9063 10.9477 69.8082 10.7954 69.7204 10.6372Z" fill="url(#paint15_linear_551_51135)"/>
<path d="M9.55582 98.1943C9.64204 97.8414 9.84422 97.5276 10.13 97.3033C10.4157 97.079 10.7685 96.957 11.1318 96.957C11.4951 96.957 11.8479 97.079 12.1336 97.3033C12.4194 97.5276 12.6215 97.8414 12.7078 98.1943L14.052 103.772C14.125 104.061 14.2749 104.325 14.4857 104.536C14.6965 104.746 14.9604 104.896 15.2494 104.969L20.8271 106.337C21.18 106.423 21.4937 106.625 21.7181 106.911C21.9424 107.197 22.0644 107.549 22.0644 107.913C22.0644 108.276 21.9424 108.629 21.7181 108.915C21.4937 109.2 21.18 109.403 20.8271 109.489L15.2494 110.833C14.9604 110.906 14.6965 111.056 14.4857 111.267C14.2749 111.477 14.125 111.741 14.052 112.03L12.7078 117.608C12.6215 117.961 12.4194 118.275 12.1336 118.499C11.8479 118.723 11.4951 118.845 11.1318 118.845C10.7685 118.845 10.4157 118.723 10.13 118.499C9.84422 118.275 9.64204 117.961 9.55582 117.608L8.20389 112.03C8.13314 111.74 7.98404 111.475 7.77287 111.264C7.56171 111.053 7.29659 110.904 7.00646 110.833L1.43651 109.489C1.0836 109.403 0.769838 109.2 0.545497 108.915C0.321157 108.629 0.199219 108.276 0.199219 107.913C0.199219 107.549 0.321157 107.197 0.545497 106.911C0.769838 106.625 1.0836 106.423 1.43651 106.337L7.00646 104.993C7.29659 104.922 7.56171 104.773 7.77287 104.562C7.98404 104.35 8.13314 104.085 8.20389 103.795L9.55582 98.1943Z" fill="url(#paint16_linear_551_51135)"/>
<path d="M181.058 153.817C181.144 153.464 181.346 153.151 181.632 152.926C181.918 152.702 182.27 152.58 182.634 152.58C182.997 152.58 183.35 152.702 183.636 152.926C183.921 153.151 184.123 153.464 184.21 153.817L185.554 159.395C185.627 159.684 185.777 159.948 185.988 160.159C186.198 160.37 186.462 160.519 186.751 160.592L192.329 161.937C192.682 162.023 192.996 162.225 193.22 162.511C193.444 162.797 193.566 163.149 193.566 163.513C193.566 163.876 193.444 164.229 193.22 164.514C192.996 164.8 192.682 165.002 192.329 165.089L186.751 166.433C186.462 166.506 186.198 166.656 185.988 166.867C185.777 167.077 185.627 167.341 185.554 167.63L184.21 173.208C184.123 173.561 183.921 173.875 183.636 174.099C183.35 174.323 182.997 174.445 182.634 174.445C182.27 174.445 181.918 174.323 181.632 174.099C181.346 173.875 181.144 173.561 181.058 173.208L179.706 167.63C179.635 167.34 179.486 167.075 179.275 166.864C179.064 166.653 178.799 166.504 178.508 166.433L172.938 165.089C172.586 165.002 172.272 164.8 172.047 164.514C171.823 164.229 171.701 163.876 171.701 163.513C171.701 163.149 171.823 162.797 172.047 162.511C172.272 162.225 172.586 162.023 172.938 161.937L178.508 160.592C178.799 160.522 179.064 160.373 179.275 160.161C179.486 159.95 179.635 159.685 179.706 159.395L181.058 153.817Z" fill="url(#paint17_linear_551_51135)"/>
<path fill-rule="evenodd" clip-rule="evenodd" d="M33.2421 58.4416C33.9082 58.4416 34.5594 58.244 35.1133 57.8739C35.6673 57.5038 36.099 56.9778 36.3539 56.3623C36.6088 55.7468 36.6755 55.0696 36.5456 54.4162C36.4156 53.7628 36.0948 53.1627 35.6238 52.6916C35.1527 52.2206 34.5525 51.8998 33.8992 51.7698C33.2458 51.6398 32.5685 51.7065 31.9531 51.9615C31.3376 52.2164 30.8116 52.6481 30.4415 53.202C30.0714 53.7559 29.8738 54.4071 29.8738 55.0733C29.8738 55.9666 30.2287 56.8234 30.8603 57.455C31.492 58.0867 32.3487 58.4416 33.2421 58.4416ZM33.2421 60.9677C33.241 62.5297 32.6197 64.0273 31.5147 65.1312C30.4097 66.2351 28.9115 66.8549 27.3496 66.8544C25.7876 66.8539 24.2898 66.2331 23.1856 65.1285C22.0813 64.0238 21.4609 62.5258 21.4609 60.9639C21.4609 59.4019 22.0813 57.9039 23.1856 56.7993C24.2898 55.6947 25.7876 55.0738 27.3496 55.0733C28.9115 55.0728 30.4097 55.6927 31.5147 56.7966C32.6197 57.9005 33.241 59.3981 33.2421 60.96V60.9677Z" fill="url(#paint18_linear_551_51135)"/>
<path d="M19.6305 145.003C19.5713 144.773 19.5738 144.531 19.6379 144.302C19.7019 144.073 19.8251 143.865 19.9951 143.699C20.1651 143.533 20.3758 143.415 20.6061 143.356C20.8364 143.298 21.0781 143.301 21.3069 143.365L28.0742 145.273C28.3032 145.337 28.5113 145.46 28.6775 145.63C28.8437 145.8 28.9622 146.011 29.0209 146.241C29.0797 146.472 29.0767 146.714 29.0122 146.942C28.9477 147.171 28.824 147.379 28.6536 147.545L23.6245 152.45C23.4547 152.616 23.2441 152.735 23.0139 152.794C22.7838 152.853 22.5422 152.85 22.3135 152.785C22.0848 152.721 21.877 152.598 21.7111 152.428C21.5453 152.258 21.4272 152.047 21.3687 151.817L19.6305 145.003Z" fill="url(#paint19_linear_551_51135)"/>
<path d="M194.762 121.789C194.993 121.729 195.234 121.732 195.463 121.796C195.692 121.86 195.9 121.983 196.066 122.153C196.232 122.323 196.35 122.534 196.409 122.764C196.468 122.995 196.465 123.236 196.4 123.465L194.484 130.287C194.419 130.515 194.296 130.722 194.125 130.887C193.955 131.053 193.744 131.17 193.514 131.228C193.283 131.286 193.042 131.283 192.814 131.218C192.585 131.153 192.378 131.029 192.213 130.858L187.315 125.821C187.151 125.651 187.034 125.441 186.976 125.212C186.919 124.983 186.922 124.743 186.986 124.515C187.05 124.288 187.173 124.081 187.342 123.916C187.511 123.751 187.72 123.632 187.949 123.573L194.762 121.789Z" fill="url(#paint20_linear_551_51135)"/>
<path fill-rule="evenodd" clip-rule="evenodd" d="M172.683 51.2012C173.308 51.1996 173.914 50.9812 174.396 50.5832C174.879 50.1853 175.208 49.6324 175.329 49.0188C175.449 48.4051 175.354 47.7686 175.058 47.2177C174.762 46.6668 174.284 46.2355 173.706 45.9973C173.127 45.7591 172.484 45.7287 171.886 45.9113C171.288 46.0939 170.772 46.4782 170.425 46.9988C170.079 47.5193 169.923 48.1439 169.985 48.7662C170.047 49.3885 170.323 49.97 170.766 50.4117C171.018 50.6629 171.317 50.8619 171.646 50.9974C171.975 51.1329 172.327 51.2021 172.683 51.2012ZM172.683 53.233C173.62 53.233 174.535 52.9552 175.314 52.4349C176.093 51.9145 176.7 51.1749 177.058 50.3096C177.416 49.4443 177.51 48.4921 177.328 47.5735C177.145 46.6548 176.694 45.811 176.031 45.1488C175.369 44.4865 174.525 44.0354 173.607 43.8527C172.688 43.67 171.736 43.7638 170.871 44.1222C170.005 44.4806 169.266 45.0876 168.745 45.8664C168.225 46.6451 167.947 47.5607 167.947 48.4973C167.947 49.7533 168.446 50.9578 169.334 51.8459C170.222 52.734 171.427 53.233 172.683 53.233Z" fill="url(#paint21_linear_551_51135)"/>
<path d="M34.6855 88.5703H170.651C171.983 88.5703 173.26 89.0994 174.202 90.0411C175.144 90.9828 175.673 92.26 175.673 93.5918C175.673 94.9235 175.144 96.2008 174.202 97.1425C173.26 98.0842 171.983 98.6132 170.651 98.6132H34.6855C33.3537 98.6132 32.0765 98.0842 31.1348 97.1425C30.1931 96.2008 29.6641 94.9235 29.6641 93.5918C29.6641 92.26 30.1931 90.9828 31.1348 90.0411C32.0765 89.0994 33.3537 88.5703 34.6855 88.5703Z" fill="url(#paint22_linear_551_51135)"/>
<path d="M66.8385 12.9473C65.5097 18.27 69.8127 29.4408 76.4642 30.3292C88.7629 31.967 86.5071 17.5825 79.1681 20.2863C70.4308 23.5001 79.1681 37.282 91.1423 40.3722" stroke="#28A789" strokeLinecap="round" strokeLinejoin="round" stroke-dasharray="4 4"/>
<path d="M136.76 11.6016C144.076 25.8316 124.701 41.0196 119.34 43.8393" stroke="#28A789" strokeLinecap="round" strokeLinejoin="round" stroke-dasharray="4 4"/>
<path d="M129.761 205.501C132.955 205.501 136.076 204.554 138.731 202.78C141.387 201.006 143.456 198.484 144.678 195.534C145.9 192.583 146.22 189.337 145.597 186.205C144.974 183.073 143.436 180.196 141.178 177.938C138.92 175.68 136.043 174.142 132.911 173.519C129.779 172.896 126.533 173.216 123.582 174.438C120.632 175.66 118.11 177.73 116.336 180.385C114.562 183.04 113.615 186.162 113.615 189.355C113.615 193.637 115.316 197.744 118.344 200.772C121.372 203.8 125.479 205.501 129.761 205.501Z" fill="#28D804"/>
<path d="M129.707 197.497C131.312 197.497 132.88 197.021 134.214 196.13C135.548 195.238 136.587 193.971 137.201 192.489C137.815 191.007 137.976 189.376 137.663 187.803C137.35 186.229 136.577 184.784 135.443 183.649C134.309 182.515 132.863 181.742 131.29 181.429C129.716 181.116 128.085 181.277 126.603 181.891C125.121 182.505 123.854 183.545 122.963 184.878C122.071 186.212 121.596 187.781 121.596 189.385C121.596 191.536 122.45 193.6 123.972 195.121C125.493 196.642 127.556 197.497 129.707 197.497Z" fill="url(#paint23_linear_551_51135)"/>
<defs>
<linearGradient id="paint0_linear_551_51135" x1="103.66" y1="213.3" x2="105.433" y2="-97.8964" gradientUnits="userSpaceOnUse">
<stop stop-color="white" stop-opacity="0"/>
<stop offset="1" stop-color="#28A745"/>
</linearGradient>
<linearGradient id="paint1_linear_551_51135" x1="53.9768" y1="94.0288" x2="57.2422" y2="55.428" gradientUnits="userSpaceOnUse">
<stop stop-color="white"/>
<stop offset="1" stop-color="#28A745"/>
</linearGradient>
<linearGradient id="paint2_linear_551_51135" x1="235.604" y1="112.869" x2="154.881" y2="111.241" gradientUnits="userSpaceOnUse">
<stop stop-color="white"/>
<stop offset="1" stop-color="#28A745"/>
</linearGradient>
<linearGradient id="paint3_linear_551_51135" x1="58.7091" y1="154.563" x2="88.3439" y2="107.498" gradientUnits="userSpaceOnUse">
<stop stop-color="#28A797"/>
<stop offset="1" stop-color="#28D804"/>
</linearGradient>
<linearGradient id="paint4_linear_551_51135" x1="84.9172" y1="162.729" x2="84.9172" y2="144.783" gradientUnits="userSpaceOnUse">
<stop stop-color="#28D506"/>
<stop offset="1" stop-color="#ffffff"/>
</linearGradient>
<linearGradient id="paint5_linear_551_51135" x1="137.878" y1="162.729" x2="137.878" y2="144.783" gradientUnits="userSpaceOnUse">
<stop stop-color="#28D804"/>
<stop offset="1" stop-color="#28D804"/>
</linearGradient>
<linearGradient id="paint6_linear_551_51135" x1="89.8843" y1="115.716" x2="175.338" y2="114.356" gradientUnits="userSpaceOnUse">
<stop offset="0.39" stop-color="#28D804"/>
<stop offset="1" stop-color="#28D506"/>
</linearGradient>
<linearGradient id="paint7_linear_551_51135" x1="76.8323" y1="118.259" x2="108.959" y2="109.913" gradientUnits="userSpaceOnUse">
<stop stop-color="#28D506"/>
<stop offset="1" stop-color="#ffffff"/>
</linearGradient>
<linearGradient id="paint8_linear_551_51135" x1="33.9457" y1="82.735" x2="171.939" y2="77.0529" gradientUnits="userSpaceOnUse">
<stop stop-color="#ffffff"/>
<stop offset="1" stop-color="#18A745"/>
</linearGradient>
<linearGradient id="paint9_linear_551_51135" x1="69.4141" y1="18.7821" x2="92.8566" y2="18.4089" gradientUnits="userSpaceOnUse">
<stop stop-color="white"/>
<stop offset="1" stop-color="#ffffff"/>
</linearGradient>
<linearGradient id="paint10_linear_551_51135" x1="4.93398" y1="188.755" x2="18.3303" y2="188.753" gradientUnits="userSpaceOnUse">
<stop stop-color="#29A585"/>
<stop offset="1" stop-color="#29A585"/>
</linearGradient>
<linearGradient id="paint11_linear_551_51135" x1="4.93975" y1="188.772" x2="18.327" y2="188.77" gradientUnits="userSpaceOnUse">
<stop stop-color="#29A585"/>
<stop offset="1" stop-color="#29A585"/>
</linearGradient>
<linearGradient id="paint12_linear_551_51135" x1="4.93491" y1="188.763" x2="18.332" y2="188.761" gradientUnits="userSpaceOnUse">
<stop stop-color="#29A585"/>
<stop offset="1" stop-color="#29A585"/>
</linearGradient>
<linearGradient id="paint13_linear_551_51135" x1="4.9331" y1="188.762" x2="18.3312" y2="188.76" gradientUnits="userSpaceOnUse">
<stop stop-color="#29A585"/>
<stop offset="1" stop-color="#29A585"/>
</linearGradient>
<linearGradient id="paint14_linear_551_51135" x1="129.515" y1="202.425" x2="140.721" y2="202.34" gradientUnits="userSpaceOnUse">
<stop stop-color="#28A797"/>
<stop offset="1" stop-color="#18A745"/>
</linearGradient>
<linearGradient id="paint15_linear_551_51135" x1="64.3145" y1="202.487" x2="68.8441" y2="193.431" gradientUnits="userSpaceOnUse">
<stop stop-color="#28A797"/>
<stop offset="1" stop-color="#18A745"/>
</linearGradient>
<linearGradient id="paint16_linear_551_51135" x1="-5.20147" y1="100.262" x2="27.4869" y2="100.044" gradientUnits="userSpaceOnUse">
<stop stop-color="#28A797"/>
<stop offset="1" stop-color="#18A745"/>
</linearGradient>
<linearGradient id="paint17_linear_551_51135" x1="166.3" y1="44.6319" x2="198.989" y2="44.4132" gradientUnits="userSpaceOnUse">
<stop stop-color="#28A797"/>
<stop offset="1" stop-color="#18A745"/>
</linearGradient>
<linearGradient id="paint18_linear_551_51135" x1="21.4155" y1="185.141" x2="36.6557" y2="185.035" gradientUnits="userSpaceOnUse">
<stop stop-color="#28A797"/>
<stop offset="1" stop-color="#18A745"/>
</linearGradient>
<linearGradient id="paint19_linear_551_51135" x1="18.1856" y1="56.4701" x2="28.038" y2="65.8673" gradientUnits="userSpaceOnUse">
<stop stop-color="#28A797"/>
<stop offset="1" stop-color="#18A745"/>
</linearGradient>
<linearGradient id="paint20_linear_551_51135" x1="188.192" y1="87.7011" x2="197.639" y2="77.8905" gradientUnits="userSpaceOnUse">
<stop stop-color="#28A797"/>
<stop offset="1" stop-color="#18A745"/>
</linearGradient>
<linearGradient id="paint21_linear_551_51135" x1="167.919" y1="159.576" x2="177.447" y2="159.51" gradientUnits="userSpaceOnUse">
<stop stop-color="#28A797"/>
<stop offset="1" stop-color="#18A745"/>
</linearGradient>
<linearGradient id="paint22_linear_551_51135" x1="179.907" y1="100.843" x2="179.063" y2="132.268" gradientUnits="userSpaceOnUse">
<stop stop-color="#28E100"/>
<stop offset="1" stop-color="#28E100"/>
</linearGradient>
<linearGradient id="paint23_linear_551_51135" x1="121.174" y1="18.7821" x2="144.616" y2="18.4089" gradientUnits="userSpaceOnUse">
<stop stop-color="white"/>
<stop offset="1" stop-color="#28D506"/>
</linearGradient>
</defs>
</svg>
