<svg width="36" height="38" viewBox="0 0 36 38" fill="none" xmlns="http://www.w3.org/2000/svg">
<path d="M34.9537 14.2015H16.3115V33.61H34.9537V14.2015Z" fill="white"/>
<path d="M18.548 1.19605L18.5327 1.72425L18.1754 1.76225C17.981 1.7784 17.5062 1.82163 17.1287 1.85725C16.7511 1.89288 16.2093 1.9722 15.9299 2.02635C15.6504 2.0805 15.353 2.14463 15.2661 2.16078C15.1181 2.18785 14.9394 2.2363 14.4746 2.3712C14.3472 2.40873 14.1069 2.47903 13.9386 2.5327C13.5098 2.65668 13.0296 2.8348 12.9684 2.89418C12.9222 2.92307 12.8692 2.93786 12.8154 2.93693C12.7431 2.94377 12.674 2.97191 12.6161 3.01815C12.5667 3.05859 12.5091 3.08624 12.4478 3.0989C12.3915 3.0989 12.0288 3.27133 11.258 3.65418C10.6401 3.96673 9.16955 4.9419 8.6282 5.40028C8.4599 5.54563 8.2403 5.72375 8.1431 5.79358C7.6886 6.1332 6.21305 7.71258 5.5853 8.52625C5.10515 9.15135 3.8645 11.1454 3.85415 11.3022C3.85415 11.3235 3.71915 11.6252 3.55805 11.9757C3.1598 12.8307 2.85335 13.652 2.91455 13.7166C2.9402 13.7437 3.1292 13.6572 3.38435 13.4957C3.61925 13.3499 3.82355 13.2316 3.8438 13.2316C3.86405 13.2316 4.04315 13.1613 4.2578 13.0753C5.0795 12.7462 5.79455 12.6117 6.6878 12.617C7.05518 12.6179 7.42195 12.6486 7.7849 12.7086C8.6426 12.8758 9.6335 13.2905 10.2869 13.7536C10.6649 14.0177 10.767 14.0339 11.0069 13.8615C11.1959 13.727 11.4767 13.5489 11.793 13.3656C12.023 13.2311 12.7173 12.9561 13.1462 12.8321C14.826 12.3472 16.7012 12.6383 18.2762 13.6244C18.3696 13.6893 18.4598 13.7594 18.5462 13.8344C18.7505 14.0177 18.9701 14.0287 19.1843 13.8615C19.6541 13.5114 20.415 13.1338 21.2115 12.864C21.6098 12.7291 22.3451 12.6212 22.9215 12.616C24.2337 12.6051 25.4132 12.9447 26.5112 13.6563L27.0372 14.0011L27.2514 13.899C27.3879 13.8343 27.5194 13.7585 27.6447 13.6724C28.1708 13.2953 29.2481 12.8649 30.014 12.7129C30.7286 12.5785 31.607 12.5566 32.1227 12.6592C33.2666 12.8967 33.7769 13.0958 34.8596 13.7517C34.8798 13.7627 34.9104 13.7413 34.9257 13.6981C34.9514 13.6173 34.7318 13.0027 34.4001 12.2588C34.298 12.0379 34.1598 11.7202 34.0883 11.5582C34.0239 11.4106 33.9524 11.2667 33.8741 11.1269C33.8291 11.0518 33.7107 10.8466 33.6185 10.669C33.4704 10.384 33.1847 9.9199 32.7509 9.25158C32.0205 8.12488 30.657 6.6158 29.4623 5.624C29.1306 5.34375 28.2167 4.65405 28.0124 4.52485C27.9674 4.49255 27.7874 4.38235 27.6191 4.2712C27.2514 4.03988 26.1692 3.4523 25.7043 3.24188C25.5207 3.1559 25.3061 3.05188 25.2296 3.01008C25.1564 2.96988 25.0767 2.94428 24.9947 2.93455C24.9468 2.93384 24.9001 2.91903 24.8597 2.8918C24.7985 2.83243 24.4614 2.70845 23.966 2.5593C23.7567 2.4947 23.4912 2.40825 23.381 2.3655C23.2806 2.32659 23.176 2.30121 23.0696 2.28998C23.0167 2.29142 22.9647 2.27476 22.9215 2.24248C22.8909 2.2154 22.7685 2.1831 22.6407 2.16695C22.5129 2.1508 22.1849 2.09 21.9027 2.03158C21.4433 1.93658 21.0756 1.88908 19.6559 1.76225L19.2473 1.72425L19.232 1.19605L19.2167 0.673553H18.5633L18.548 1.19605ZM20.856 6.3973L20.946 6.52128L21.0788 6.39208L21.2165 6.25718L21.3515 6.40253C21.4842 6.54503 21.4842 6.54835 21.3924 6.65618C21.3056 6.75118 21.2903 6.7583 21.1832 6.68278C21.0297 6.58065 20.9636 6.58065 20.8461 6.6937C20.7561 6.78015 20.744 6.77445 20.6162 6.64003C20.4884 6.5056 20.4834 6.4942 20.5757 6.38638C20.6927 6.24625 20.7449 6.25195 20.856 6.3973ZM12.5841 6.4676C12.6813 6.58065 12.6966 6.6291 12.6557 6.69893C12.5688 6.83905 12.4361 6.83905 12.2984 6.70463L12.1755 6.58065L12.288 6.45668C12.4257 6.3004 12.4361 6.3004 12.5841 6.4676ZM13.9341 6.6614C13.9494 6.75308 13.9647 7.20053 13.9647 7.6532C13.9647 8.56378 13.98 8.61793 14.2797 8.58563C14.4228 8.5747 14.4534 8.5424 14.4737 8.4132C14.5043 8.23508 14.6271 8.15433 14.6271 8.31583C14.6271 8.46165 14.8004 8.607 14.9421 8.58563C15.024 8.5747 15.0749 8.51533 15.1109 8.39135C15.1721 8.17048 15.218 8.17048 15.3098 8.4075C15.4223 8.6925 15.7031 8.66115 15.7539 8.36C15.7845 8.1928 15.8714 8.20943 15.9533 8.398C16.0194 8.54858 16.0604 8.57043 16.2494 8.588C16.5302 8.60938 16.617 8.53385 16.617 8.27545C16.617 7.77955 17.1278 7.54775 17.4338 7.89783C17.7609 8.26975 17.8388 8.93808 17.5872 9.21833C17.4072 9.42353 17.2196 9.39645 16.9487 9.13235L16.7192 8.91148L16.5864 9.0782C16.4384 9.2682 16.1675 9.31 16.0554 9.16465C15.9686 9.05683 15.902 9.06205 15.7692 9.19695L15.6527 9.31L15.4488 9.18603C15.2544 9.07298 15.2342 9.07298 15.1473 9.15373C15.0249 9.27248 14.9277 9.26678 14.7387 9.15373C14.5907 9.06205 14.5808 9.06205 14.4836 9.15373C14.4224 9.2131 14.3036 9.2454 14.1312 9.2454C13.9062 9.2454 13.8504 9.22403 13.7433 9.0839C13.5633 8.86255 13.5134 8.53955 13.4981 7.58005L13.4877 6.74453L13.6614 6.62055C13.881 6.46 13.8914 6.46 13.9323 6.6614H13.9341ZM24.3656 6.72078L24.483 6.83383L24.6108 6.70985L24.7458 6.58065L24.8835 6.726L25.0185 6.87183L24.9164 6.97918C24.8142 7.087 24.8093 7.0927 24.6509 6.99533C24.5028 6.90413 24.4925 6.90413 24.3854 7.00625C24.2783 7.10838 24.2783 7.10885 24.1455 6.96303C24.0128 6.8172 24.0128 6.81768 24.1046 6.70985C24.2157 6.57495 24.2207 6.57495 24.3638 6.72078H24.3656ZM12.8037 7.29743C12.9053 7.41842 12.9864 7.55691 13.0436 7.70688C13.1304 7.99188 13.0796 8.48873 12.9315 8.76898C12.7628 9.09198 12.5432 9.2055 12.0482 9.24398L11.6396 9.27105L11.609 9.5133C11.566 9.82972 11.4418 10.1277 11.2499 10.375C11.0915 10.5797 11.0699 10.5906 10.7999 10.5906C10.3404 10.5906 9.9269 10.4286 10.1667 10.3427C10.7589 10.1322 11.4587 9.60403 11.4587 9.37223C11.4587 9.27723 11.2647 8.91955 11.2134 8.91955C11.1559 8.88982 11.1026 8.85177 11.055 8.8065L10.9277 8.69868L11.0501 8.45595C11.1216 8.32675 11.1932 8.21845 11.2184 8.21845C11.2436 8.21845 11.3358 8.3049 11.4281 8.40845C11.5964 8.59845 11.6013 8.59845 12.0405 8.59845C12.3366 8.59845 12.5355 8.57185 12.6327 8.5177C12.8577 8.39373 12.8168 8.34528 12.5207 8.36713C12.153 8.39373 11.9181 8.24838 11.9181 7.9952C11.9181 7.50975 12.1683 7.08938 12.4541 7.08938C12.5841 7.087 12.666 7.13593 12.8037 7.29743ZM21.1467 7.1573C21.2849 7.23805 21.428 7.43755 21.5247 7.6798C21.6219 7.93298 21.6219 8.93 21.5247 9.18888C21.3105 9.7546 20.9987 9.9541 20.289 9.9864C19.6766 10.0135 19.4057 9.91088 19.1915 9.57125C19.0686 9.37175 19.0565 9.31808 19.079 8.9623C19.1046 8.58515 19.232 8.18615 19.3188 8.2403C19.3395 8.25645 19.3494 8.39658 19.3341 8.55285C19.3188 8.79035 19.3341 8.87063 19.4363 9.02785C19.605 9.29195 19.8449 9.36748 20.4524 9.33518C20.9987 9.3138 21.2898 9.18413 21.3461 8.9471C21.3911 8.7571 21.3357 8.70438 21.1112 8.70438C20.861 8.70438 20.5136 8.55903 20.4474 8.42983C20.3813 8.30063 20.3862 8.1548 20.4731 7.85983C20.5802 7.5202 20.6927 7.29933 20.8254 7.18628C20.9582 7.07323 20.9987 7.07085 21.1467 7.1573ZM26.7686 7.73918C27.1209 7.85793 27.5192 7.97098 27.6569 7.98713C27.7946 8.00328 27.9228 8.0465 27.9327 8.08213C27.9426 8.11775 27.9071 8.2384 27.8513 8.34623C27.7613 8.50773 27.7082 8.54003 27.5705 8.54003C27.4629 8.54003 27.1515 8.66923 26.7483 8.87253L26.0945 9.215L25.4919 9.23685C24.9519 9.253 24.8745 9.24208 24.7058 9.14185C24.5258 9.0288 24.5168 9.0288 24.42 9.12048C24.3485 9.19078 24.2103 9.22308 23.9295 9.23353C23.4908 9.2606 23.4089 9.30383 23.4089 9.50855C23.4089 9.6919 23.1942 10.1736 22.9904 10.441L22.827 10.6566L22.4441 10.6243C22.0863 10.5863 21.9279 10.5293 21.9279 10.4301C21.9279 10.4087 22.1223 10.2956 22.3572 10.1717C22.8072 9.93415 23.2046 9.57885 23.2046 9.41165C23.2046 9.3252 23.1537 9.30383 22.8729 9.26915C22.6277 9.24208 22.4999 9.19885 22.3878 9.09673C22.2141 8.94568 22.1988 8.80555 22.3059 8.4284C22.449 7.93773 22.638 7.67933 22.8576 7.67933C23.0156 7.67933 23.3018 8.01183 23.3976 8.29683L23.4876 8.56663L23.7783 8.58278C24.0897 8.59893 24.1001 8.59323 24.0132 8.43695C23.9165 8.28068 24.0083 8.04888 24.2535 7.8014C24.5546 7.49408 24.7539 7.48315 24.9834 7.75818C25.1634 7.97383 25.1927 8.227 25.0599 8.42318C24.9888 8.531 24.9888 8.54715 25.0653 8.57423C25.2287 8.64453 26.3316 8.55808 26.5409 8.46118C26.6534 8.41368 26.7209 8.35335 26.6939 8.32628C26.6327 8.26168 25.9739 8.0028 25.8717 8.0028C25.8267 8.0028 25.734 8.05695 25.6679 8.12155C25.581 8.2023 25.5329 8.22415 25.4942 8.18093C25.3718 8.05125 25.7952 7.51593 26.0202 7.51593C26.0846 7.5183 26.4149 7.6152 26.7686 7.73918Z" fill="#084981"/>
<path d="M16.996 8.07879C16.9037 8.33766 17.2151 8.92524 17.401 8.84971C17.6102 8.76896 17.3857 8.05171 17.1404 8.01419C17.0725 8.00326 17.0099 8.03034 16.996 8.07879ZM17.2511 8.35904C17.2961 8.47779 17.2358 8.53146 17.1796 8.43456C17.1233 8.33766 17.1184 8.27306 17.1746 8.27306C17.1998 8.27306 17.2349 8.31249 17.2511 8.35999V8.35904Z" fill="#084981"/>
<path d="M12.1757 7.6532C12.0789 7.77718 12.1658 7.8432 12.4362 7.8432C12.7067 7.8432 12.7476 7.78905 12.5739 7.65985C12.4313 7.5525 12.2576 7.5525 12.1757 7.6532Z" fill="#084981"/>
<path d="M20.7234 7.79334C20.6334 7.90116 20.6334 7.90639 20.7283 7.98334C20.8354 8.06409 21.1932 8.08594 21.2337 8.01041C21.2697 7.95626 21.0703 7.75676 20.9277 7.71401C20.8561 7.69074 20.79 7.71259 20.7234 7.79334Z" fill="#084981"/>
<path d="M24.2874 8.11679C24.1443 8.17569 24.1596 8.25929 24.3383 8.39704C24.4404 8.47779 24.5183 8.49204 24.66 8.46686C24.8949 8.41936 24.9458 8.28921 24.7824 8.15954C24.6497 8.05171 24.471 8.03556 24.2874 8.11679Z" fill="#084981"/>
<path d="M22.5769 8.31249C22.5103 8.37709 22.5409 8.53336 22.6219 8.56566C22.729 8.60889 23.0269 8.60889 23.0661 8.56044C23.1322 8.49584 22.882 8.27544 22.7443 8.27544C22.6687 8.27306 22.5922 8.28921 22.5769 8.31249Z" fill="#084981"/>
<path d="M16.3115 16.5462V18.8908L18.548 18.8798L20.7791 18.8637L20.7949 16.53L20.8048 14.2025H16.3115V16.5462ZM20.141 16.5191V18.1925L18.548 18.1816L16.9496 18.1654L16.9343 16.5053L16.9244 14.8509H20.141V16.5191Z" fill="black"/>
<path d="M17.5881 16.5191V17.5432L18.548 17.5322L19.5029 17.5161L19.5182 16.5029L19.5285 15.495H17.5881V16.5191Z" fill="black"/>
<path d="M22.7453 14.8485V15.5007L23.0603 15.4845L23.3753 15.4684L23.365 14.8509L23.36 14.231L23.0486 14.2148L22.7422 14.1987L22.7453 14.8485Z" fill="black"/>
<path d="M24.022 14.525V14.8537L24.3433 14.8376L24.6583 14.8214L24.6736 14.5089L24.6889 14.2015H24.022V14.525Z" fill="black"/>
<path d="M26.6102 14.2391C26.59 14.2557 26.5747 14.4011 26.5747 14.5626V14.8476H25.9672L25.9519 15.1544L25.9366 15.4674L25.6216 15.4836L25.2998 15.4997V15.8123C25.2998 16.1571 25.2692 16.1923 24.9781 16.1923C24.7382 16.1923 24.6973 16.1386 24.677 15.8151L24.6617 15.5187L24.3467 15.5026L24.0254 15.4864V16.834L24.3467 16.8502L24.6617 16.8663L24.6667 17.1732L24.6721 17.4805L24.0286 17.4966L23.3851 17.5128L23.3698 17.8453L23.3545 18.1778L23.6762 18.1939L23.998 18.2101L24.0133 18.5174L24.0286 18.83H23.4139L23.3999 18.525L23.3846 18.2177L23.0696 18.2015L22.7479 18.1854V16.8478L23.0696 16.8316L23.3846 16.8155L23.3999 16.5514C23.4103 16.406 23.395 16.2664 23.3693 16.2388C23.3185 16.1852 21.5464 16.1472 21.4649 16.1956C21.4343 16.2175 21.4199 16.3628 21.4294 16.5243L21.4447 16.8155L21.7507 16.8426L22.0571 16.8696L22.0724 17.1765L22.0877 17.4838L21.766 17.5L21.4447 17.5161V18.8637L21.766 18.8798L22.0877 18.896L22.0724 19.2033L22.0571 19.5106L21.1022 19.5268L20.1424 19.5372V20.1842H19.5299V19.5372H16.3115V20.1842H16.6841C16.8975 20.1845 17.1106 20.197 17.3227 20.2217L17.5927 20.254L17.5774 20.5561L17.5621 20.8577L17.2471 20.8739L16.9253 20.89V21.5318H16.3115V22.2267L16.6076 22.2428L16.8988 22.259L16.9141 22.5663L16.9294 22.8789H18.1957L18.211 23.2114L18.2263 23.551L18.548 23.5671L18.8698 23.5833L18.8549 23.8925L18.8396 24.1998L18.2164 24.216L17.5936 24.2321L17.5783 24.5646L17.563 24.8971H16.9496L16.9343 24.5575L16.919 24.225H16.3115V28.2673H16.9244L16.9343 26.9373L16.9496 25.6006L17.5729 25.5845L18.1957 25.5683L18.211 25.9079L18.2263 26.2476L18.8797 26.2637L19.5286 26.2799V27.5681H18.8644V26.9211H17.5882V28.2687H21.4132L21.4289 28.9261L21.4442 29.5911L21.7502 29.6182L22.0567 29.6448L22.0823 29.9682L22.108 30.2917L22.414 30.2865L22.7204 30.2756L22.7461 29.963L22.7717 29.6448L23.0678 29.6286L23.359 29.6125V30.97L22.7357 30.9539L22.1057 30.9377L22.0904 30.5981L22.0751 30.2585L21.7601 30.2746L21.4451 30.2908V33.5782L21.7601 33.5949L22.0751 33.611L22.0904 33.298L22.1057 32.9854L22.4207 32.9693L22.7357 32.9531L22.751 32.2957L22.7663 31.6383L23.7262 31.6222L24.6811 31.6113V30.9634H25.2935V32.3109H25.9573V32.9579H24.6856V32.3109H23.3581V32.9579H24.6856V33.6044L25.6454 33.5939L26.6003 33.5773L26.6156 32.9417L26.6309 32.3109H28.5151V32.9579H29.7863L29.8016 33.2647L29.8169 33.5773L30.1387 33.5939L30.4537 33.6101V32.9579H31.1179V33.6044L32.0777 33.5939L33.0326 33.5773L33.0479 32.5912L33.0578 31.6051L33.3539 31.6212L33.6451 31.6374L33.6604 32.2948L33.6757 32.9598H34.3295L34.3448 32.2948L34.3601 31.6374L34.6562 31.6212L34.9474 31.6051V29.6163H33.6721V29.9393C33.6721 30.2361 33.6824 30.2627 33.7945 30.295C33.8513 30.3118 33.9114 30.3118 33.9682 30.295C34.037 30.2782 34.1086 30.2782 34.1774 30.295C34.3408 30.333 34.3408 30.333 34.3255 30.6347L34.3102 30.9368L33.6874 30.9529L33.0574 30.9691V31.6103H32.3954V30.3169H32.6456C33.0389 30.3169 33.0592 30.295 33.0592 29.934V29.6215L32.7442 29.6053L32.4224 29.5892L32.4071 29.2819L32.3918 28.9745L32.7136 28.9584L33.0353 28.9422L33.0506 27.9291L33.0605 26.9211H33.6734V26.2799L33.9952 26.2637L34.3102 26.2476L34.3255 25.9151L34.3408 25.5826L34.0195 25.5664L33.6977 25.5503L33.6824 25.2429L33.6671 24.9356L33.0439 24.9195L32.4211 24.9033V24.2535L32.7428 24.2374L33.0578 24.2212V23.5795H34.3295L34.3448 22.9145L34.3601 22.2566L34.6409 22.23L34.9217 22.2029V21.5584L34.2917 21.5422L33.6617 21.5261L33.677 21.2187L33.6923 20.9119L34.0141 20.8957L34.3291 20.8796V19.5372H33.6721V20.1842H33.0592V19.5372H32.3954V20.1842H31.7249L31.7402 20.5167L31.7555 20.8563L32.0773 20.8725L32.3923 20.8886V22.2362L32.714 22.22L33.029 22.2039L33.0542 21.8804L33.0799 21.5569L33.376 21.5408L33.6671 21.5246V22.8774H31.7317V23.5781H31.1192V24.9256H31.7317V25.574H31.1192V26.2746H31.7317V26.9211H32.3954V27.5681H31.7879L31.7726 27.2555L31.7573 26.9482L31.1192 26.9211L30.4807 26.8945L30.4649 26.6C30.4546 26.4385 30.4199 26.2875 30.3884 26.2675C30.3569 26.2476 30.2201 26.2243 30.0874 26.2243H29.8421L29.8318 25.2382L29.8165 24.2573L29.5015 24.2412L29.1865 24.225L29.1712 24.8876L29.1559 25.5526L28.8341 25.5688L28.5124 25.5849L28.5277 25.9174L28.543 26.2499L29.173 26.2661L29.7958 26.2822V27.5704H27.2384V26.9211H27.9022V26.2799L27.6772 26.2476C27.2893 26.183 27.2636 26.2043 27.2483 26.5872L27.233 26.9197H26.6255V26.2746H27.2384V25.574H27.9022V24.9271H27.2384V25.5683L26.9234 25.5845L26.6017 25.6006L26.5864 25.9027L26.5711 26.2043L25.9532 26.2366C25.6108 26.2585 25.1882 26.2746 25.0082 26.2746H24.6865V25.574H25.9627V24.9323L26.2844 24.9161L26.5994 24.9L26.6147 24.5604L26.63 24.2279H27.9013V23.5866L27.5863 23.5705L27.2645 23.5543V22.9059L27.5863 22.8898L27.9013 22.8736V22.2324H24.6856V21.5318H25.298V20.8848H25.9618V21.5318H26.6255V20.8848H25.9618V19.5372H24.6856V20.1842H24.0218V18.896L24.3431 18.8798L24.6581 18.8637L24.6734 18.1987L24.6887 17.5413H25.96V18.1925H25.2931L25.3084 18.525L25.3237 18.8646H25.9366L25.9519 18.525L25.9672 18.1925H26.5747V19.5396H27.2384V19.8522C27.2384 20.0251 27.2488 20.1813 27.2587 20.1918C27.2686 20.2022 27.4225 20.2027 27.5908 20.1975L27.9022 20.1756V19.5372H27.2335L27.2488 18.8746L27.2641 18.2167L27.5858 18.2006L27.9008 18.1844V18.8908H28.5137V18.1925H27.9022V17.5432H29.1734L29.1892 17.2036L29.2045 16.8711L29.5258 16.8549L29.8408 16.8388V16.1975H29.6671C29.5559 16.195 29.4451 16.1842 29.3354 16.1652C29.182 16.1329 29.177 16.1277 29.177 15.8151V15.4969H28.5151V15.8151C28.5151 16.0526 28.4944 16.1386 28.4332 16.1652C28.3261 16.2084 27.5089 16.2084 27.0188 16.1652L26.6255 16.1277V14.8485H27.2384V15.495H27.9022V14.8485H29.1788V14.2025H27.9125C27.2128 14.2025 26.6255 14.2177 26.6102 14.2391ZM26.5747 17.166V17.4895H25.9618V17.2045C25.9618 17.043 25.9771 16.8972 25.9978 16.881C26.0185 16.8649 26.1508 16.8435 26.3042 16.8435H26.5742L26.5747 17.166ZM22.7452 18.5131V18.8366H22.0814V18.5516C22.0814 18.3896 22.0967 18.2443 22.117 18.2281C22.1372 18.212 22.2857 18.1906 22.4491 18.1906H22.7452V18.5131ZM23.3581 19.8607V20.1842H22.7452V21.5318H23.3428L23.3783 20.901C23.3986 20.5504 23.4193 20.2649 23.4233 20.2597C23.5197 20.2432 23.6173 20.2349 23.7149 20.235L23.9957 20.2189L24.011 20.5514L24.0263 20.8839H24.6851V20.1842H24.9101C25.2728 20.1842 25.298 20.2056 25.298 20.567V20.8848H24.6856V21.5318H24.0218V22.8736L24.3431 22.8898L24.6581 22.9059L24.6734 23.2384L24.6887 23.5781H25.2913L25.3066 23.2384L25.3219 22.9059L25.9519 22.8898L26.5747 22.8736V23.5795H25.9618V24.225H25.3034L25.2881 24.5575L25.2728 24.8971H24.047V24.2535L24.3688 24.2374L24.6838 24.2212V23.5795H23.363L23.3477 24.2374L23.3324 24.9024L23.0413 24.9185L22.7452 24.9347V25.5707L23.3752 25.5868L23.998 25.603L24.0133 25.9355L24.0286 26.2751H24.6874V26.9216H25.2998V27.5685H24.6856V26.9211H23.4089V26.6304C23.4089 26.2908 23.3428 26.21 23.0669 26.2205C22.7402 26.2366 22.7452 26.2476 22.7452 25.897V25.574H22.0864L22.0711 26.2314L22.0558 26.8964L21.7646 26.9126L21.4685 26.9287V26.2746H19.5299V25.5792L19.2149 25.5631L18.8932 25.5469L18.8779 25.2396L18.8626 24.9323L19.1843 24.9161L19.5061 24.9L19.5214 24.235L19.5367 23.5771H18.8644V22.8789H18.2519V22.2267L18.548 22.2428L18.8392 22.259L18.8545 22.5663L18.8698 22.8789H19.5299V22.2324H20.1374L20.1527 21.8928L20.168 21.5603H20.7805V22.2072L20.4655 22.2234L20.1437 22.2395V22.8808L21.1036 22.8917L22.0585 22.9078L22.0738 23.2403L22.0891 23.58H22.7479V22.8846L23.0696 22.8684L23.3846 22.8523V22.259L22.7465 22.2324L22.1084 22.2053L22.0931 21.8657L22.0778 21.5332H21.4685V20.89L20.8201 20.8739L20.1667 20.8577L20.1514 20.5181L20.1361 20.179L21.428 20.1894L22.7195 20.2003L22.7348 19.9362C22.7555 19.5429 22.7605 19.5372 23.0768 19.5372H23.3581V19.8607ZM19.5286 20.8582V21.5318H18.2519V20.2436L18.5219 20.2217C18.665 20.2113 18.9562 20.2003 19.1605 20.1951L19.5281 20.1842L19.5286 20.8582ZM33.0592 20.4488C33.0592 20.8639 33.0389 20.8853 32.6992 20.8853H32.3977V20.1842H33.0614L33.0592 20.4488ZM33.0299 25.66C33.0452 25.7075 33.0605 26.0105 33.0605 26.334V26.9211H32.3954V26.2851C32.3954 25.935 32.4107 25.6277 32.4314 25.6115C32.4521 25.5954 32.5844 25.574 32.7325 25.574C32.9264 25.574 33.0034 25.5954 33.0299 25.66ZM20.7949 27.2555L20.8102 27.5681H20.141V27.2831C20.141 27.1211 20.1563 26.9757 20.177 26.9539C20.1977 26.932 20.3404 26.9216 20.4983 26.9325L20.7791 26.9487L20.7949 27.2555ZM26.585 27.2555L26.6003 27.5951L26.9221 27.6113L27.2371 27.6274V28.9156H25.9618V29.6163H26.5697L26.585 29.9488L26.6003 30.2884L26.9221 30.3045L27.2371 30.3207V30.9619H27.9008V30.2627H27.2335L27.2488 29.9502L27.2641 29.6429L27.5858 29.6267L27.9008 29.6106V28.9693H28.5137V29.6163H27.9022V30.2627H28.1218C28.2392 30.2627 28.5268 30.2789 28.7599 30.3007L29.1788 30.333L29.1685 31.3087L29.1532 32.2839L28.8382 32.3L28.5164 32.3162V30.9634H27.9071L27.8918 31.2707L27.8765 31.5832L27.5615 31.5994L27.2398 31.6155V30.9634H26.5747V31.6103H25.9672L25.9519 30.9453L25.9366 30.2879L25.3133 30.2718L24.6856 30.2575V30.97L24.3706 30.9539L24.0488 30.9377L24.0335 30.6304L24.0182 30.3283L24.3553 30.2908L24.6874 30.2532V29.6163H23.4089V28.9693L24.3431 28.9584L25.2728 28.9422L25.298 28.6192L25.3237 28.2958L25.6454 28.2796L25.9604 28.2635V27.6274C25.9604 27.2769 25.9757 26.9753 25.9964 26.9591C26.0171 26.943 26.1494 26.9211 26.2975 26.9211H26.5675L26.585 27.2555ZM22.7452 27.9452V28.2687H23.3581V28.9156H22.0814V27.6217H22.7452V27.9452ZM24.6856 27.8754C24.6856 28.2416 24.6496 28.2796 24.3229 28.2554L24.047 28.2392L24.0299 27.93L24.0146 27.6227H24.6838L24.6856 27.8754ZM29.1685 28.6026L29.1838 28.9156H28.5151V28.6306C28.5151 28.4691 28.5304 28.3233 28.5506 28.3019C28.5709 28.2806 28.714 28.2696 28.8724 28.2806L29.1532 28.2967L29.1685 28.6026ZM31.7335 29.2676V30.2651H29.8435V28.2701H31.7335V29.2676ZM31.7335 31.2887V31.6122H31.1192V32.3128H31.7317V32.9598H31.1192V32.3109H30.455V32.9579H29.8426V32.3109H30.455V31.6103H29.8426V30.9634H31.7326L31.7335 31.2887Z" fill="black"/>
<path d="M19.53 23.2275V23.5776H20.1425V24.225H20.8062V23.5838L20.4912 23.5676L20.1695 23.5515L20.1542 23.2118L20.1389 22.8793H19.53V23.2275Z" fill="black"/>
<path d="M21.438 24.302C21.4227 24.3395 21.4177 24.492 21.4281 24.6345L21.4434 24.8986L21.7647 24.9147L22.0797 24.9309V24.225H21.7732C21.5608 24.225 21.4587 24.2478 21.438 24.302Z" fill="black"/>
<path d="M20.1411 25.2505V25.574H20.8049V24.9271H20.1411V25.2505Z" fill="black"/>
<path d="M30.4911 28.9479C30.4708 28.9693 30.4551 29.1308 30.4551 29.3037V29.6162H31.1242L31.1089 29.2766L31.0936 28.9441L30.8128 28.928C30.6544 28.9156 30.51 28.9275 30.4911 28.9479Z" fill="black"/>
<path d="M30.465 16.53L30.4803 18.8637H34.9227V14.2286L32.6862 14.2125L30.4551 14.2025L30.465 16.53ZM34.3251 16.5029L34.3098 18.1631L32.7168 18.1792L31.1188 18.1901V14.8485H34.335L34.3251 16.5029Z" fill="black"/>
<path d="M31.7525 15.5653C31.7422 15.6028 31.7372 16.0555 31.7422 16.5732L31.7575 17.5161L32.7173 17.5322L33.6722 17.5432V15.495H32.7272C32.0027 15.495 31.7728 15.5111 31.7525 15.5653Z" fill="black"/>
<path d="M10.6696 14.9292C9.92935 15.3282 9.58195 16.1367 9.7966 16.9775C9.8866 17.3546 9.99055 17.5379 10.2466 17.7911C10.6858 18.2386 11.2816 18.3949 11.8396 18.2186C12.1546 18.1165 12.3553 17.9868 12.6208 17.6961C12.9327 17.3565 13.0447 17.0383 13.0447 16.5048C13.0447 15.9714 12.9376 15.6912 12.5947 15.3173C12.2217 14.9131 12.0331 14.8323 11.4355 14.8105C10.9707 14.7943 10.8996 14.8053 10.6696 14.9292Z" fill="#084981"/>
<path d="M21.438 14.924C21.4227 14.9616 21.4177 15.1017 21.4281 15.2309L21.4434 15.4684L21.7647 15.4845L22.0797 15.5007V14.8485H21.7732C21.5608 14.8485 21.4587 14.8699 21.438 14.924Z" fill="black"/>
<path d="M29.179 18.5402V18.896L29.5007 18.8798L29.8157 18.8637L29.831 18.5241L29.8463 18.1916H29.179V18.5402Z" fill="black"/>
<path d="M10.6286 18.525C10.4036 18.5896 9.46447 19.4626 8.98477 20.0559C8.82097 20.2606 8.57617 20.5461 8.44837 20.6972C8.19322 20.9822 7.43767 22.0177 7.26892 22.3031C7.20688 22.4261 7.17356 22.5629 7.17172 22.7021C7.17098 22.8301 7.15217 22.9572 7.11592 23.0793C7.07647 23.1895 7.04444 23.3025 7.02007 23.4175C6.99982 23.5201 6.93007 23.8003 6.86707 24.0374C6.80407 24.2744 6.73432 24.5656 6.70867 24.6838C6.68302 24.8021 6.62182 25.0558 6.57097 25.25C6.46882 25.6381 6.47872 25.63 6.03997 25.5246C5.90182 25.4923 5.68762 25.4438 5.55982 25.4115C5.19712 25.3308 5.17687 25.2933 5.28982 24.9536C5.45317 24.4577 5.39692 24.3176 5.01982 24.3119C4.80562 24.3067 4.80562 24.3067 4.73407 24.576C4.59907 25.0719 4.58062 25.1042 4.42762 25.0719C4.35112 25.0558 4.11622 24.9912 3.90697 24.9266C3.30937 24.7489 3.00292 24.7366 2.76307 24.8833C2.52322 25.0301 2.40802 25.2396 2.25007 25.897C2.18392 26.1772 2.07637 26.6033 2.01517 26.8403C1.95397 27.0774 1.84507 27.4873 1.77982 27.7566C1.71457 28.0259 1.60657 28.4249 1.55032 28.6458C1.49407 28.8667 1.42747 29.1365 1.40722 29.2386C1.36627 29.4286 1.33072 29.5678 1.17727 30.0741C1.01392 30.6076 1.10077 31.0607 1.40722 31.2977C1.50442 31.3733 1.72897 31.4754 1.91257 31.5295C2.09617 31.5837 2.34682 31.6535 2.47462 31.691C2.60242 31.7286 2.99032 31.8421 3.34222 31.9338C4.39927 32.2188 4.36372 32.1979 4.46722 32.4886C4.58467 32.812 4.64092 32.8876 4.88077 33.0168C5.14087 33.1569 5.36047 33.1464 5.61607 32.9845C5.71073 32.9243 5.79294 32.8447 5.85781 32.7503C5.92268 32.6559 5.96888 32.5486 5.99366 32.435C6.01844 32.3213 6.02128 32.2036 6.00202 32.0887C5.98277 31.9739 5.9418 31.8643 5.88157 31.7666C5.79157 31.6264 5.77402 31.5457 5.79967 31.4217C5.97967 30.6617 6.16732 29.8642 6.23392 29.6167C6.27892 29.4547 6.37657 29.0667 6.45892 28.7541C6.54127 28.4416 6.62722 28.1129 6.65287 28.0264C6.70417 27.8597 6.82162 27.3852 6.94897 26.8389C6.98992 26.6613 7.06147 26.3915 7.10242 26.2461C7.14337 26.1008 7.21987 25.7825 7.27567 25.5455C7.42372 24.9365 7.57717 24.3542 7.67392 24.0203L7.75582 23.74H7.99072C8.30212 23.74 8.53702 23.6051 8.78227 23.2764C8.89432 23.1201 9.12922 22.8014 9.30787 22.5596C9.48652 22.3179 9.64492 22.1231 9.66562 22.1231C9.68632 22.1231 9.70612 22.7107 9.70612 23.4327C9.70612 24.1547 9.73717 24.9418 9.76237 25.1949L9.81007 25.6547L9.63007 26.0048C8.92537 27.331 8.14957 29.46 7.52137 31.7613C7.41922 32.1437 7.69507 32.699 8.05732 32.8443C8.24632 32.9199 8.68732 32.9199 8.82232 32.8443C9.13732 32.6719 9.26152 32.4672 9.47122 31.7518C9.58822 31.3638 9.74662 30.8517 9.82852 30.6147C9.91042 30.3777 10.0085 30.0542 10.0535 29.8979C10.1141 29.688 10.1858 29.4819 10.2682 29.2804C10.3393 29.0971 10.4212 28.8976 10.4414 28.8382C10.4617 28.7788 10.6255 28.3964 10.8041 27.987C11.1191 27.2431 11.233 27.0598 11.2789 27.1999C11.4782 27.825 11.8558 29.0377 11.948 29.3502C12.0857 29.8138 12.4687 30.9942 12.6986 31.6678C12.9488 32.3955 13.1837 32.6382 13.6436 32.6382C13.9348 32.6382 14.338 32.4173 14.4757 32.1798C14.6647 31.8511 14.6597 31.6098 14.4505 30.9671C14.3483 30.6546 14.2462 30.3259 14.2205 30.2399C14.185 30.0941 13.9447 29.3341 13.4137 27.6797C13.3016 27.34 13.1378 26.8171 13.046 26.5207C12.9542 26.2243 12.857 25.9336 12.8264 25.8742C12.7958 25.8148 12.7603 25.5616 12.7549 25.308C12.7495 25.0543 12.7243 24.5005 12.6937 24.0687C12.6325 23.19 12.6221 22.2898 12.6734 22.2898C12.6887 22.2898 12.8215 22.4029 12.9646 22.543C13.1995 22.7748 13.5518 23.0655 14.2205 23.5942C14.5166 23.826 15.2825 24.3162 15.4715 24.3917C15.6605 24.4672 15.8954 24.3813 16.1353 24.1385L16.3292 23.9447L16.3036 23.4108C16.273 22.7748 16.2937 22.8019 15.5224 22.2575C14.4194 21.4705 13.6895 20.7808 12.9574 19.8213C12.4367 19.1425 12.0844 18.7706 11.8189 18.6247C11.5534 18.4789 10.94 18.4271 10.6286 18.525ZM4.60852 26.3392C4.69852 26.4342 4.68007 26.9049 4.56802 27.3415C4.5248 27.4918 4.49068 27.6449 4.46587 27.7998C4.46587 27.8374 4.74127 28.1879 5.07832 28.5864C5.41537 28.985 5.70157 29.3521 5.72182 29.411C5.75737 29.5298 5.61967 29.7777 5.52247 29.7777C5.48197 29.7777 5.27272 29.6376 5.04772 29.4652C4.82272 29.2928 4.55272 29.0985 4.44517 29.0339C4.19497 28.8776 4.16437 28.9047 3.99067 29.4761L3.85567 29.8965L4.02937 30.0741C4.22332 30.2641 4.24897 30.3762 4.12657 30.4836C4.05997 30.5377 3.95782 30.5216 3.50377 30.3705C2.85532 30.1549 2.78872 30.1064 2.87062 29.9126C2.91562 29.81 2.96737 29.7777 3.08482 29.7777C3.25852 29.7777 3.44212 29.6162 3.44212 29.4543C3.45816 29.3142 3.48388 29.1757 3.51907 29.0396C3.56992 28.8344 3.58027 28.7161 3.54427 28.6781C3.50827 28.6401 3.15142 28.6083 2.73787 28.5921L1.98727 28.5651L2.00257 28.3751C2.00752 28.2725 2.03317 28.1703 2.05837 28.1433C2.08357 28.1162 2.47732 28.0031 2.93677 27.8844C3.39622 27.7656 3.80977 27.6312 3.85567 27.588C3.90157 27.5448 3.95782 27.4156 3.97852 27.3077C4.03972 26.9681 4.20352 26.5316 4.32052 26.3972C4.43752 26.2627 4.51672 26.2423 4.60852 26.3392Z" fill="#084981"/>
<path d="M29.1788 19.8607V20.179L28.8638 20.1951L28.5421 20.2113L28.5268 20.5438L28.5115 20.8834H29.7899V21.5318H29.1788V22.8736L28.8638 22.8898L28.5421 22.9059V23.5529H29.8169L29.8322 22.5392L29.8426 21.5261L30.1387 21.5422L30.4298 21.5584L30.4451 21.8909L30.4604 22.2305H31.1192V22.8827L31.4405 22.8665L31.7555 22.8504V22.259L31.4405 22.2428L31.1192 22.2267V20.179L31.4 20.1894C31.558 20.2003 31.706 20.179 31.7371 20.1462C31.7681 20.1134 31.7821 19.9738 31.7726 19.8284L31.7573 19.5643L31.4423 19.5482L31.121 19.532V20.1842H30.455V19.5372H29.1788V19.8607ZM30.455 20.5343V20.8848H29.8426V20.2436L30.0365 20.2217C30.491 20.1733 30.455 20.1462 30.455 20.5343Z" fill="black"/>
<path d="M27.2385 21.2083V21.5317H27.9023V20.8848H27.2385V21.2083Z" fill="black"/>
<path d="M34.335 27.9181V28.2687H33.6672L33.6825 28.6012L33.6978 28.9408H34.3103L34.3256 28.6012L34.3409 28.2687H34.9538L34.9385 27.929L34.9232 27.5965L34.632 27.5804L34.3359 27.5642L34.335 27.9181Z" fill="black"/>
<path d="M16.3115 31.2597V33.6043H20.8048V28.9156H16.3115V31.2597ZM20.141 31.2868V32.9579H16.9244V31.3248C16.9244 30.4223 16.9397 29.6699 16.96 29.6538C16.9802 29.6376 17.7002 29.6162 18.5683 29.6162H20.141V31.2868Z" fill="black"/>
<path d="M17.5881 31.2868V32.3109H19.5299L19.5195 31.2978L19.5042 30.2898L18.5493 30.2737L17.5895 30.2627L17.5881 31.2868Z" fill="black"/>
<path d="M27.2385 33.2809V33.6044H27.9023V32.9579H27.2385V33.2809Z" fill="black"/>
<path d="M2.44359 35.245C2.42829 35.2825 2.42829 35.6597 2.43369 36.0857L2.44899 36.8671H2.85759L2.88279 36.4358C2.90844 36.0211 2.91339 36.005 3.03624 36.005C3.15909 36.005 3.16359 36.0211 3.18924 36.4358L3.21489 36.8671H3.62349V36.3693C3.62349 35.9651 3.60279 35.8573 3.52629 35.7656C3.40884 35.6312 3.08214 35.6093 2.98629 35.7333C2.89044 35.8573 2.85894 35.7874 2.85894 35.4749V35.1946L2.66454 35.1889C2.55609 35.1837 2.45394 35.2108 2.44359 35.245Z" fill="#084981"/>
<path d="M8.34127 35.178C8.34127 35.189 8.25442 35.577 8.14732 36.0459C7.98892 36.7522 7.96327 36.9085 8.02447 36.9298C8.04275 36.9386 8.06302 36.9418 8.08294 36.939C8.10285 36.9361 8.12159 36.9273 8.13697 36.9137C8.19322 36.8491 8.54557 35.2593 8.51497 35.2108C8.49427 35.1728 8.35162 35.15 8.34127 35.178Z" fill="#084981"/>
<path d="M8.98974 35.2108C8.95374 35.2697 8.63739 36.6876 8.63244 36.8115C8.62704 36.8814 8.65764 36.9189 8.72244 36.9189C8.80389 36.9189 8.83989 36.8239 8.95734 36.2724C9.03384 35.9166 9.12069 35.5338 9.15129 35.426C9.18189 35.3181 9.18684 35.216 9.17154 35.1999C9.14506 35.1783 9.11211 35.1675 9.07871 35.1695C9.04532 35.1716 9.01374 35.1862 8.98974 35.2108Z" fill="#084981"/>
<path d="M21.3157 35.34C21.3157 35.491 21.326 35.4963 21.5096 35.4825C21.668 35.4663 21.6986 35.4445 21.6986 35.3371C21.6986 35.2298 21.673 35.2075 21.5096 35.197C21.326 35.1837 21.3157 35.1946 21.3157 35.34Z" fill="#084981"/>
<path d="M23.2713 35.2322C23.2506 35.2697 23.1485 35.6635 23.0463 36.1C22.8933 36.765 22.8731 36.9075 22.9343 36.9298C22.9534 36.9383 22.9744 36.9413 22.9951 36.9385C23.0157 36.9357 23.0352 36.9271 23.0517 36.9137C23.108 36.8491 23.4599 35.2645 23.4293 35.2108C23.3888 35.1457 23.3172 35.1566 23.2713 35.2322Z" fill="#084981"/>
<path d="M29.046 35.216C29.0294 35.2643 29.0223 35.3158 29.0253 35.3671C29.0253 35.4801 29.046 35.491 29.2602 35.491C29.4744 35.491 29.4902 35.4853 29.4749 35.3452C29.4596 35.2212 29.4339 35.2027 29.2656 35.1999C29.1599 35.1946 29.0559 35.2051 29.046 35.216Z" fill="#084981"/>
<path d="M31.2418 35.245C31.2265 35.2825 31.2265 35.6597 31.2315 36.0857L31.2468 36.8671H31.6554L31.6707 36.479C31.686 36.0857 31.7575 35.9347 31.9056 35.9941C31.9618 36.0211 31.9875 36.1394 31.9956 36.4467L32.0109 36.8671H32.4195V36.3745C32.4195 35.9651 32.4042 35.8573 32.3223 35.7656C32.2048 35.6312 31.8781 35.6093 31.7823 35.7333C31.6864 35.8573 31.6545 35.7874 31.6545 35.4749V35.1946L31.4605 35.1889C31.3543 35.1837 31.2522 35.2108 31.2418 35.245Z" fill="#084981"/>
<path d="M4.17462 35.34C4.08462 35.3994 4.00632 35.491 4.00632 35.5447C4.00502 35.5712 3.99725 35.5969 3.98376 35.6193C3.97028 35.6417 3.95154 35.66 3.92937 35.6725C3.88887 35.6886 3.85287 35.7589 3.85287 35.8345C3.85193 35.866 3.85843 35.8972 3.87179 35.9254C3.88514 35.9536 3.90493 35.9779 3.92937 35.996C3.98562 36.0178 4.00632 36.1147 4.00632 36.3679C4.00632 36.8206 4.06752 36.9013 4.38927 36.8799C4.62372 36.8638 4.64442 36.8529 4.64442 36.7289C4.64442 36.6339 4.61877 36.5945 4.54227 36.5945C4.45542 36.5945 4.44012 36.5512 4.42482 36.3095C4.40952 36.0511 4.41987 36.0245 4.54227 35.977C4.71057 35.9124 4.70562 35.6806 4.54227 35.6806C4.46037 35.6806 4.43517 35.6373 4.42482 35.4488C4.40457 35.1946 4.39917 35.1889 4.17462 35.34Z" fill="#084981"/>
<path d="M5.1704 35.3348C5.05295 35.3994 4.976 35.4801 4.976 35.5395C4.97503 35.5669 4.96751 35.5936 4.95413 35.6171C4.94076 35.6406 4.92196 35.6602 4.8995 35.6739C4.87673 35.6861 4.85756 35.7046 4.84407 35.7275C4.83058 35.7503 4.82329 35.7767 4.823 35.8036C4.827 35.8692 4.85432 35.9308 4.8995 35.976C4.9508 36.0193 4.976 36.1432 4.976 36.348C4.976 36.7755 5.06285 36.8923 5.3846 36.8923C5.5223 36.8923 5.64515 36.8762 5.6546 36.8491C5.6951 36.7788 5.6033 36.5959 5.53175 36.5959C5.48675 36.5959 5.4503 36.5042 5.4296 36.3261C5.39405 36.0136 5.4044 35.976 5.5421 35.976C5.61365 35.976 5.63885 35.938 5.63885 35.8141C5.63885 35.6796 5.6186 35.6526 5.51645 35.6526C5.4044 35.6526 5.39405 35.6364 5.4197 35.4369C5.4512 35.1947 5.4359 35.1837 5.1704 35.3348Z" fill="#084981"/>
<path d="M32.9724 35.34C32.8824 35.3994 32.8041 35.4911 32.8041 35.5447C32.8031 35.5714 32.7956 35.5974 32.7821 35.6201C32.7687 35.6427 32.7499 35.6613 32.7276 35.6739C32.7049 35.6861 32.6857 35.7046 32.6722 35.7275C32.6587 35.7503 32.6514 35.7767 32.6511 35.8036C32.6551 35.8692 32.6824 35.9308 32.7276 35.976C32.7785 36.0235 32.8041 36.1485 32.8041 36.3746C32.8041 36.822 32.8653 36.9028 33.1871 36.8814C33.422 36.8652 33.4422 36.8543 33.4422 36.7303C33.4422 36.6353 33.417 36.5959 33.3401 36.5959C33.2532 36.5959 33.2379 36.5527 33.2226 36.3109C33.2073 36.0525 33.2177 36.0259 33.3401 35.9784C33.5088 35.9138 33.5034 35.682 33.3401 35.682C33.2586 35.682 33.233 35.6388 33.2226 35.4502C33.2024 35.1947 33.1974 35.189 32.9724 35.34Z" fill="#084981"/>
<path d="M5.9156 35.7224C5.90525 35.7604 5.9003 36.1323 5.90525 36.5417L5.921 37.2965H6.101C6.27425 37.2965 6.281 37.2908 6.29495 37.0699L6.31025 36.8491L6.58025 36.8761C6.83045 36.9027 6.8561 36.8975 6.98525 36.7303C7.1792 36.4881 7.18415 36.0568 6.9902 35.8197C6.92053 35.7315 6.82314 35.6725 6.71576 35.6537C6.60839 35.6349 6.49817 35.6574 6.4052 35.7171C6.31835 35.7713 6.28775 35.7713 6.2702 35.7171C6.23735 35.6312 5.9516 35.6312 5.9156 35.7224ZM6.6203 36.0135C6.7427 36.1323 6.73775 36.4178 6.60995 36.5417C6.5132 36.6334 6.50285 36.6334 6.40565 36.5417C6.28325 36.4235 6.2729 36.1537 6.39035 36.0192C6.4925 35.9005 6.50285 35.9005 6.6203 36.0135Z" fill="#084981"/>
<path d="M7.3967 35.7281C7.37927 35.8039 7.37575 35.8826 7.38635 35.9599C7.40165 36.1024 7.4219 36.1104 7.60595 36.1104H7.81025V35.8953C7.81025 35.6848 7.80485 35.6796 7.6163 35.6635C7.48355 35.6525 7.41695 35.6687 7.3967 35.7281Z" fill="#084981"/>
<path d="M9.24477 35.6958C9.21957 35.7433 9.55122 36.7199 9.63807 36.8277C9.66867 36.8652 9.76047 36.8923 9.84732 36.8814C9.99042 36.8652 10.0161 36.8339 10.1079 36.5579C10.1641 36.3855 10.2253 36.2454 10.2406 36.2454C10.2559 36.2454 10.3221 36.3879 10.3783 36.5527C10.4683 36.86 10.4755 36.8652 10.6695 36.8652H10.8585L11.0574 36.29C11.1649 35.9775 11.2374 35.7024 11.2207 35.6863C11.166 35.662 11.1068 35.651 11.0475 35.654C10.8787 35.654 10.8225 35.7457 10.7716 36.1014C10.7266 36.4249 10.6438 36.4088 10.5466 36.0539C10.4598 35.7214 10.4085 35.6549 10.2352 35.6549C10.062 35.6549 10.0102 35.7195 9.92337 36.0701C9.88782 36.2264 9.84192 36.3551 9.82122 36.3551C9.77622 36.3551 9.67317 36.0102 9.67317 35.8644C9.6692 35.81 9.64759 35.7586 9.61197 35.7191C9.54627 35.6473 9.28572 35.6312 9.24477 35.6958Z" fill="#084981"/>
<path d="M11.3436 35.6848C11.3283 35.701 11.3999 35.976 11.507 36.2886L11.7059 36.8652H11.9003C12.0992 36.8652 12.0992 36.86 12.191 36.5527C12.2423 36.3855 12.3035 36.2453 12.3291 36.2453C12.3548 36.2453 12.4106 36.3878 12.4619 36.5527C12.5586 36.86 12.5586 36.8652 12.758 36.8652H12.9569L13.14 36.3156C13.2422 36.0083 13.3493 35.7713 13.3749 35.7765C13.4006 35.7817 13.5077 36.0354 13.6098 36.3318L13.7898 36.8652H13.9887C14.1881 36.8652 14.1881 36.8652 14.2902 36.5256C14.3465 36.3422 14.4023 36.1931 14.4176 36.1931C14.4329 36.1931 14.4945 36.3437 14.5503 36.5322C14.6426 36.8291 14.6678 36.8647 14.8005 36.8828C14.8824 36.8937 14.9693 36.8776 14.9999 36.8453C15.0764 36.764 15.4391 35.7456 15.4085 35.6915C15.3725 35.6269 15.102 35.6487 15.0458 35.7186C15.0031 35.8078 14.9755 35.9043 14.9643 36.0036C14.9283 36.2187 14.8518 36.4021 14.8212 36.3536C14.8109 36.3375 14.76 36.1812 14.7038 36.0036C14.6016 35.6801 14.6016 35.6801 14.4023 35.6801H14.2034L14.1165 35.9979C14.0715 36.176 14.0094 36.3266 13.9788 36.3375C13.9482 36.3484 13.9122 36.2458 13.8969 36.1109C13.8407 35.6834 13.8155 35.6639 13.3763 35.6639C13.1513 35.6639 12.978 35.6905 12.9573 35.7228C12.9165 35.8231 12.8874 35.9282 12.8705 36.0359C12.8399 36.1784 12.794 36.2943 12.7634 36.3C12.7328 36.3057 12.6765 36.1921 12.6356 36.0463C12.5339 35.6962 12.4979 35.653 12.3345 35.653C12.1509 35.653 12.0996 35.7228 12.0195 36.0463C11.948 36.3589 11.8661 36.3484 11.7945 36.0249C11.7752 35.9194 11.745 35.8163 11.7045 35.7176C11.66 35.6525 11.3999 35.625 11.3436 35.6848Z" fill="#084981"/>
<path d="M16.3014 35.8088C16.1484 35.9542 16.1331 35.9988 16.1331 36.2724C16.1331 36.546 16.1484 36.5902 16.3014 36.736C16.4395 36.8652 16.5111 36.8923 16.746 36.8923C16.899 36.8923 17.0776 36.8652 17.151 36.8277C17.2941 36.7626 17.452 36.5475 17.4012 36.4952C17.3346 36.4306 17.0079 36.4629 16.921 36.5494C16.7325 36.7322 16.4976 36.49 16.5534 36.1774C16.5943 35.967 16.7478 35.8924 16.9008 35.9993C17.0439 36.1019 17.3143 36.1124 17.3656 36.0212C17.3859 35.9884 17.3346 35.8972 17.2378 35.8055C17.0997 35.6758 17.0335 35.6544 16.773 35.6544C16.5124 35.6544 16.4445 35.6725 16.3014 35.8088Z" fill="#084981"/>
<path d="M17.7107 35.7875C17.6392 35.8625 17.5933 35.9437 17.6086 35.9703C17.6648 36.062 17.9609 36.0677 18.1036 35.9813C18.221 35.9114 18.2516 35.9114 18.3232 35.9703C18.4406 36.0729 18.3844 36.1128 18.0082 36.1917C17.564 36.2867 17.4056 36.5365 17.6405 36.7845C17.753 36.9028 18.0905 36.9298 18.2584 36.832C18.3349 36.794 18.3812 36.794 18.4321 36.8372C18.5086 36.9018 18.8506 36.8914 18.8303 36.8211C18.82 36.7997 18.815 36.5893 18.815 36.3522C18.815 35.9589 18.7997 35.9048 18.6872 35.7865C18.5747 35.6682 18.5189 35.6516 18.2021 35.6516C17.8853 35.6516 17.8232 35.6687 17.7107 35.7875ZM18.3083 36.5204C18.1733 36.6334 18.068 36.6496 18.0221 36.5679C17.9456 36.433 18.2624 36.2553 18.3799 36.3684C18.4105 36.3964 18.3848 36.4501 18.3083 36.5204Z" fill="#084981"/>
<path d="M19.2936 35.7551C18.9512 35.976 18.9512 36.5688 19.2882 36.7845C19.5132 36.9298 19.9268 36.9298 20.1054 36.7788C20.3961 36.5413 20.3961 36.0031 20.1054 35.7604C19.9317 35.615 19.5128 35.615 19.2936 35.7551ZM19.7886 35.976C19.9317 36.0568 19.9268 36.4881 19.7837 36.5688C19.7534 36.5899 19.7179 36.6012 19.6815 36.6012C19.6452 36.6012 19.6097 36.5899 19.5794 36.5688C19.4516 36.4933 19.4417 36.1646 19.5641 36.0192C19.6613 35.9057 19.6613 35.9057 19.7886 35.976Z" fill="#084981"/>
<path d="M21.3301 35.739C21.3197 35.7713 21.3197 36.0354 21.3251 36.3318L21.3404 36.8652H21.6977V35.6901L21.524 35.6849C21.4331 35.6796 21.3463 35.7062 21.3301 35.739Z" fill="#084981"/>
<path d="M22.0303 36.2183V36.822C22.0303 36.8491 22.1171 36.8652 22.2247 36.8652H22.4132L22.4389 36.5095C22.4645 36.1537 22.5563 35.949 22.6688 35.9974C22.7588 36.0297 22.8488 35.9219 22.8488 35.7765C22.8488 35.6739 22.8232 35.6526 22.6954 35.6526C22.657 35.6506 22.6188 35.6579 22.5835 35.6738C22.5482 35.6896 22.5168 35.7137 22.4915 35.7442C22.4402 35.8359 22.4402 35.8359 22.3894 35.7442C22.364 35.7137 22.3325 35.6896 22.2971 35.6738C22.2618 35.6579 22.2235 35.6506 22.1851 35.6526H22.0316L22.0303 36.2183Z" fill="#084981"/>
<path d="M23.6336 35.7224C23.6237 35.7604 23.6183 36.1323 23.6237 36.5417L23.639 37.2965H23.819C23.9927 37.2965 23.999 37.2908 24.013 37.0699L24.0283 36.8491L24.2983 36.8761C24.5485 36.9027 24.5741 36.8975 24.7033 36.7303C24.8972 36.4881 24.9022 36.0568 24.7082 35.8197C24.6386 35.7315 24.5412 35.6725 24.4338 35.6537C24.3264 35.6349 24.2162 35.6574 24.1232 35.7171C24.0364 35.7713 24.0058 35.7713 23.9882 35.7171C23.9554 35.6312 23.6701 35.6312 23.6336 35.7224ZM24.3383 36.0135C24.4607 36.1323 24.4558 36.4178 24.328 36.5417C24.2312 36.6334 24.2209 36.6334 24.1241 36.5417C24.0013 36.4235 23.9891 36.2092 24.1034 36.0406C24.1952 35.9005 24.2159 35.8953 24.3383 36.0135Z" fill="#084981"/>
<path d="M25.2266 35.7675C25.1555 35.8269 25.0916 35.9076 25.0916 35.9508C25.0916 36.0534 25.4034 36.0857 25.5362 35.9941C25.6689 35.9024 25.8323 35.9185 25.8323 36.0316C25.8323 36.0857 25.7301 36.1342 25.5258 36.1826C25.3571 36.2202 25.1784 36.2905 25.1325 36.3389C25.076 36.4013 25.0444 36.4844 25.0444 36.5707C25.0444 36.6571 25.076 36.7401 25.1325 36.8025C25.2603 36.9208 25.6383 36.9208 25.7657 36.8025C25.8525 36.7218 25.8629 36.7218 25.9241 36.8077C25.9691 36.8723 26.0415 36.8994 26.1387 36.8833L26.2814 36.8671L26.2715 36.3821C26.2557 35.7409 26.1896 35.6544 25.7045 35.6544C25.4363 35.6525 25.3351 35.6725 25.2266 35.7675ZM25.8444 36.4843C25.8039 36.5921 25.5636 36.6567 25.4921 36.5816C25.4205 36.5066 25.5231 36.3712 25.6721 36.3441C25.821 36.3171 25.8804 36.3745 25.8444 36.4824V36.4843Z" fill="#084981"/>
<path d="M26.5081 35.6849C26.4928 35.7062 26.5531 35.8302 26.6512 35.9651C26.7493 36.1 26.8312 36.2292 26.8312 36.2501C26.8312 36.271 26.7497 36.4173 26.6512 36.5631C26.5526 36.709 26.4712 36.8377 26.4712 36.8595C26.4712 36.8814 26.5684 36.8918 26.6858 36.8809C26.8694 36.87 26.9207 36.8377 27.0071 36.6909C27.0634 36.5959 27.1246 36.5185 27.1453 36.5128C27.166 36.5071 27.2218 36.5992 27.283 36.7028C27.373 36.8752 27.4058 36.8928 27.62 36.8928C27.7478 36.8928 27.85 36.8766 27.85 36.8548C27.7892 36.7407 27.7191 36.6324 27.6403 36.5313L27.4378 36.2425L27.6416 35.9836C27.7541 35.8411 27.836 35.7086 27.8153 35.6872C27.7946 35.6659 27.6979 35.6549 27.5903 35.6549C27.4373 35.6549 27.3757 35.6872 27.2893 35.8164C27.2276 35.9029 27.1615 35.9784 27.1462 35.9784C27.1309 35.9784 27.0796 35.9029 27.049 35.8164C26.9981 35.6711 26.9675 35.6549 26.7682 35.6549C26.6399 35.6526 26.5288 35.6687 26.5081 35.6849Z" fill="#084981"/>
<path d="M28.076 35.7224C28.0616 35.9251 28.0581 36.1286 28.0656 36.3318L28.0809 36.8652H28.4409L28.4715 36.5042C28.5021 36.1323 28.5836 35.949 28.7064 35.9974C28.7829 36.0297 28.9512 35.7927 28.9004 35.7062C28.8554 35.6312 28.6043 35.6364 28.5224 35.7172C28.4661 35.7713 28.4508 35.7713 28.4324 35.7172C28.3977 35.6312 28.1115 35.6312 28.076 35.7224Z" fill="#084981"/>
<path d="M29.0462 35.7333C29.0309 35.7656 29.0309 36.0354 29.0359 36.3318L29.0512 36.8652H29.4598V35.6848L29.2658 35.6739C29.1533 35.6725 29.0561 35.6958 29.0462 35.7333Z" fill="#084981"/>
<path d="M29.8225 35.8197C29.5876 36.1104 29.6843 36.6496 29.9908 36.7788C30.1438 36.8491 30.2207 36.8438 30.4196 36.7574C30.4961 36.7251 30.5096 36.736 30.4961 36.8381C30.4759 37.0163 30.3278 37.097 30.2 37.0106C30.1115 36.9692 30.016 36.9472 29.9192 36.946C29.7761 36.946 29.7392 36.9678 29.7392 37.0538C29.7392 37.2319 29.9791 37.3502 30.3368 37.3502C30.6122 37.3502 30.6734 37.3288 30.7909 37.2077C30.9187 37.0652 30.9259 37.0462 30.929 36.3722C30.934 35.6825 30.934 35.6772 30.8165 35.6597C30.7322 35.6516 30.6474 35.668 30.5713 35.7072C30.4813 35.7608 30.4385 35.7608 30.3913 35.7124C30.3557 35.6749 30.2432 35.6478 30.1411 35.6478C29.9957 35.6525 29.9251 35.6901 29.8225 35.8197ZM30.4075 35.976C30.5249 36.0458 30.5425 36.3641 30.4282 36.461C30.2239 36.6386 30.0092 36.3156 30.1676 36.062C30.2666 35.9057 30.2716 35.9005 30.4093 35.976H30.4075Z" fill="#084981"/>
<path d="M33.7846 35.7765C33.5497 36.0354 33.6824 36.3209 34.0703 36.3855C34.3156 36.4287 34.4686 36.528 34.4177 36.612C34.3669 36.6961 34.1675 36.6928 34.0906 36.612C34.0037 36.5204 33.7382 36.5094 33.6721 36.5959C33.6311 36.6496 33.6518 36.6909 33.7535 36.7788C33.8552 36.8666 33.9632 36.8923 34.2184 36.8923C34.5145 36.8923 34.5658 36.8761 34.6985 36.736C34.78 36.6496 34.8466 36.5417 34.8466 36.4985C34.8466 36.3261 34.6625 36.1755 34.3615 36.1104C34.1981 36.0781 34.0501 36.0192 34.0397 35.9865C34.0091 35.8915 34.1828 35.8411 34.2899 35.9114C34.397 35.9817 34.7237 35.9974 34.7696 35.9276C34.7854 35.9005 34.7341 35.825 34.6625 35.7656C34.4582 35.5989 33.9376 35.6041 33.7846 35.7765Z" fill="#084981"/>
<path d="M7.41198 36.4396C7.39128 36.461 7.37598 36.5741 7.37598 36.6876V36.8975L7.59558 36.8814C7.81023 36.8652 7.81023 36.8652 7.81023 36.6496C7.81023 36.4339 7.80483 36.4339 7.63023 36.4178C7.52943 36.4073 7.43223 36.4178 7.41198 36.4396Z" fill="#084981"/>
<path d="M15.4129 36.4824C15.3957 36.5583 15.3922 36.6369 15.4025 36.7142C15.4178 36.8567 15.4331 36.8652 15.6374 36.8652C15.7549 36.8652 15.8521 36.8491 15.8521 36.822V36.5959C15.8521 36.4125 15.8471 36.4059 15.6478 36.4059C15.515 36.4073 15.4282 36.4325 15.4129 36.4824Z" fill="#084981"/>
<path d="M20.5448 36.4287C20.5448 36.4448 20.5394 36.5527 20.5394 36.6605L20.5344 36.8652H20.9844V36.6496C20.9844 36.4339 20.9844 36.4339 20.7702 36.4178C20.6465 36.4073 20.5497 36.4125 20.5448 36.4287Z" fill="#084981"/>
</svg>
