<svg width="34" height="38" viewBox="0 0 34 38" fill="none" xmlns="http://www.w3.org/2000/svg">
  <path d="M12.1218 1.72606C15.1533 0.0319726 18.8467 0.0319732 21.8782 1.72606L28.8782 5.63783C32.0407 7.40508 34 10.7445 34 14.3673V21.6327C34 25.2555 32.0407 28.5949 28.8782 30.3622L21.8782 34.2739C18.8467 35.968 15.1533 35.968 12.1218 34.2739L5.12178 30.3622C1.95933 28.5949 0 25.2555 0 21.6327V14.3673C0 10.7445 1.95934 7.40508 5.12179 5.63783L12.1218 1.72606Z" fill="url(#paint0_linear)"/>
  <defs>
    <linearGradient id="paint0_linear" x1="17" y1="-1" x2="17" y2="37" gradientUnits="userSpaceOnUse">
      <stop stop-color="#28A745"/>
      <stop offset="1" stop-color="#10411B"/>
    </linearGradient>
  </defs>
  <g transform="translate(12, 10)">
    <path d="M0.133 5.211C0.133 4.273 0.367 3.449 0.836 2.738C1.305 2.02 1.922 1.461 2.688 1.062C3.453 0.656 4.285 0.453 5.184 0.453C5.902 0.453 6.633 0.602 7.375 0.898C8.125 1.195 8.832 1.668 9.496 2.316L7.938 5.223C7.469 4.785 7.004 4.473 6.543 4.285C6.09 4.09 5.668 3.992 5.277 3.992C4.738 3.992 4.289 4.121 3.93 4.379C3.578 4.629 3.402 4.914 3.402 5.234C3.402 5.547 3.52 5.828 3.754 6.078C3.988 6.328 4.281 6.582 4.633 6.84C4.984 7.098 5.332 7.402 5.676 7.754C6.027 8.098 6.32 8.523 6.555 9.031C6.789 9.539 6.906 10.168 6.906 10.918V11.152H3.52V10.941C3.52 10.473 3.438 10.094 3.273 9.805C3.109 9.508 2.898 9.258 2.641 9.055C2.383 8.844 2.109 8.645 1.82 8.457C1.539 8.262 1.27 8.035 1.012 7.777C0.754 7.512 0.543 7.176 0.379 6.77C0.215 6.363 0.133 5.844 0.133 5.211ZM2.934 14.832C2.934 14.207 3.156 13.691 3.602 13.285C4.047 12.879 4.582 12.676 5.207 12.676C5.832 12.676 6.363 12.879 6.801 13.285C7.246 13.691 7.469 14.207 7.469 14.832C7.469 15.449 7.246 15.965 6.801 16.379C6.363 16.785 5.832 16.988 5.207 16.988C4.566 16.988 4.027 16.785 3.59 16.379C3.152 15.965 2.934 15.449 2.934 14.832Z" fill="white"/>
  </g>
</svg>
