<svg width="555" height="555" viewBox="0 0 555 555" fill="none" xmlns="http://www.w3.org/2000/svg">
<path d="M241.055 401.357C241.055 401.357 190.828 401.357 174.363 401.357C157.898 401.357 154.753 405.243 161.69 408.11C168.628 410.978 135.42 409.59 129.778 414.677C124.043 419.765 138.658 421.707 154.475 421.707C170.293 421.707 268.898 421.707 281.57 421.707C294.243 421.707 291.098 412.458 283.513 411.255C275.928 410.053 295.815 411.718 303.4 409.035C310.985 406.353 305.528 401.357 241.055 401.357Z" fill="#86FFA2"/>
<path d="M338.365 418.285C336.422 420.968 329.947 421.615 318.94 421.338C310.615 421.06 301.92 420.412 301.92 416.527C301.92 412.642 323.102 413.105 330.502 413.938C336.885 414.678 339.475 416.713 338.365 418.285Z" fill="#BDFFCC"/>
<path d="M146.705 405.335C145.41 407.278 140.97 407.833 133.2 407.833C127.373 407.833 121.268 407.555 121.083 404.873C120.898 402.098 135.79 402.005 141.063 402.468C145.503 402.838 147.445 404.133 146.705 405.335Z" fill="#BDFFCC"/>
<path d="M472.397 399.045H439.375C436.785 399.045 434.657 396.917 434.657 394.327V360.195C434.657 357.605 436.785 355.477 439.375 355.477H472.397C474.987 355.477 477.115 357.605 477.115 360.195V394.327C477.115 396.917 474.987 399.045 472.397 399.045Z" fill="#B6FFC6"/>
<path d="M470.825 397.473H439.097C436.6 397.473 434.565 395.438 434.565 392.94V360.01C434.565 357.513 436.6 355.478 439.097 355.478H470.825C473.322 355.478 475.357 357.513 475.357 360.01V392.94C475.357 395.438 473.322 397.473 470.825 397.473Z" fill="#E1ECFF"/>
<path d="M455.285 390.165C462.641 390.165 468.605 384.201 468.605 376.845C468.605 369.489 462.641 363.525 455.285 363.525C447.928 363.525 441.965 369.489 441.965 376.845C441.965 384.201 447.928 390.165 455.285 390.165Z" fill="#B6FFC6"/>
<path d="M450.012 382.857C449.55 382.857 449.18 382.488 449.18 382.025V371.757C449.18 371.295 449.55 370.925 450.012 370.925C450.475 370.925 450.845 371.295 450.845 371.757V382.025C450.845 382.488 450.475 382.857 450.012 382.857Z" fill="#134D20"/>
<path d="M459.632 382.857C459.17 382.857 458.8 382.488 458.8 382.025V371.757C458.8 371.295 459.17 370.925 459.632 370.925C460.095 370.925 460.465 371.295 460.465 371.757V382.025C460.465 382.488 460.095 382.857 459.632 382.857Z" fill="#134D20"/>
<path d="M374.625 341.325C373.977 341.325 373.33 341.325 372.682 341.232C358.345 340.215 348.54 335.312 332.075 310.245C326.34 301.55 322.455 292.67 318.662 284.068C312.187 269.36 306.637 256.595 294.057 250.675C274.725 241.61 255.762 256.595 255.577 256.78C254.745 257.428 253.542 257.335 252.895 256.502C252.247 255.67 252.34 254.468 253.172 253.82C254.005 253.173 274.17 237.17 295.63 247.252C309.505 253.727 315.61 267.695 322.085 282.495C325.785 291.005 329.67 299.793 335.22 308.118C350.852 331.798 359.825 336.422 372.96 337.44C382.765 338.18 388.037 332.26 393.125 326.433C394.975 324.397 396.64 322.455 398.582 320.79C406.075 314.407 413.937 313.205 414.307 313.205C415.325 313.02 416.342 313.76 416.435 314.777C416.62 315.795 415.88 316.813 414.862 316.905C414.77 316.905 407.74 318.015 401.08 323.658C399.322 325.138 397.75 326.988 395.992 328.93C390.812 334.85 385.077 341.325 374.625 341.325Z" fill="#134D20"/>
<path d="M428.46 306.823L436.23 300.255C437.062 299.608 438.172 299.7 438.82 300.532C439.375 301.272 439.282 302.29 438.542 302.937L430.68 309.875L428.46 306.823Z" fill="#134D20"/>
<path d="M423.65 301.273L431.42 294.705C432.252 294.058 433.362 294.15 434.01 294.982C434.565 295.722 434.472 296.74 433.732 297.387L425.87 304.325L423.65 301.273Z" fill="#134D20"/>
<path d="M433.917 310.245C433.917 310.245 430.865 313.852 426.147 318.015C421.43 322.085 415.325 321.345 412.55 318.2C412.365 318.015 412.272 317.83 412.087 317.645C409.682 314.315 409.59 309.782 413.197 306.545C416.99 303.03 423.28 298.035 423.28 298.035L430.865 306.823L433.917 310.245Z" fill="#E1ECFF"/>
<path d="M433.917 310.245C433.917 310.245 430.865 313.852 426.147 318.015C421.43 322.085 415.325 321.345 412.55 318.2C412.365 318.015 412.272 317.83 412.087 317.645C414.307 317.645 418.1 317.182 421.522 314.87C424.39 312.927 428.09 309.505 430.772 306.823L433.917 310.245Z" fill="#B6FFC6"/>
<path d="M292.393 381.1C292.3 381.1 292.115 381.1 292.023 381.1C285.733 381.007 269.36 368.705 265.198 362.97C260.943 357.235 257.15 349.928 262.33 345.21C263.348 344.285 264.828 343.638 266.493 343.36C268.99 342.898 272.043 343.452 274.633 345.117C279.073 347.985 291.56 362.507 295.075 368.705C298.498 374.81 298.405 381.007 292.393 381.1Z" fill="#134D20"/>
<path d="M292.393 381.1C293.318 380.545 293.965 379.62 294.52 377.77C295.445 374.532 292.208 368.057 281.57 355.662C275.188 348.17 269.73 344.84 266.493 343.36C268.99 342.898 272.043 343.452 274.633 345.117C279.073 347.985 291.56 362.507 295.075 368.705C298.498 374.81 298.405 381.007 292.393 381.1Z" fill="#2D6C3B"/>
<path d="M261.128 349.187C262.053 346.597 267.418 347.06 272.043 351.593C276.668 356.125 283.698 365.097 281.94 368.982C280.183 372.867 273.523 369.722 268.065 364.357C262.608 358.992 259.648 353.35 261.128 349.187Z" fill="#10411B"/>
<path d="M272.783 360.75C272.598 363.71 271.488 365.56 271.488 365.56C271.488 365.56 246.605 377.4 215.433 355.663C183.705 333.555 183.613 305.99 183.613 305.713C199.893 289.802 218.208 307.285 218.208 307.285C218.208 307.285 219.318 317.183 224.313 327.173C227.18 332.908 231.343 338.735 237.263 342.62C252.063 352.332 267.418 349.373 267.418 349.373C267.418 349.373 270.378 350.297 272.135 355.94C272.783 357.605 272.968 359.362 272.783 360.75Z" fill="#E1ECFF"/>
<path d="M272.783 360.75C272.598 363.71 271.488 365.56 271.488 365.56C271.488 365.56 246.605 377.4 215.433 355.663C183.705 333.555 183.613 305.99 183.613 305.713C199.893 289.802 218.208 307.285 218.208 307.285C218.208 307.285 219.318 317.183 224.313 327.173C221.815 329.023 218.67 330.965 216.265 331.705C211.178 333.185 205.72 333.185 205.72 333.185C205.72 333.185 221.353 356.588 244.478 360.843C256.965 362.97 266.585 362.045 272.783 360.75Z" fill="#B6FFC6"/>
<path d="M237.91 365.468C237.448 365.468 236.985 365.19 236.8 364.635C236.523 363.988 236.892 363.34 237.54 363.062C237.632 363.062 242.628 361.12 244.108 357.05C245.68 352.887 244.385 349.557 244.385 349.557C244.108 348.91 244.478 348.263 245.033 347.985C245.68 347.708 246.328 348.077 246.605 348.632C246.698 348.817 248.177 352.887 246.327 357.882C244.385 363.062 238.558 365.19 238.28 365.282C238.188 365.467 238.003 365.468 237.91 365.468Z" fill="#B6FFC6"/>
<path d="M216.45 355.94C215.803 355.94 215.248 355.477 215.248 354.83C215.248 354.182 215.71 353.627 216.358 353.535C216.45 353.535 222.925 353.072 226.163 348.817C229.4 344.562 229.215 340.215 229.215 340.122C229.123 339.475 229.678 338.827 230.325 338.827C230.973 338.735 231.62 339.29 231.62 339.937C231.62 340.122 231.99 345.21 228.105 350.297C224.128 355.385 216.82 355.847 216.45 355.94Z" fill="#B6FFC6"/>
<path d="M172.605 338.457C172.235 339.29 171.773 340.123 171.125 340.955C169.923 342.528 168.535 343.453 167.24 344.1C165.39 345.025 163.91 345.21 163.91 345.21C163.91 345.21 150.868 332.538 139.49 309.968C128.113 287.49 127.28 261.59 127.28 261.59C128.298 261.035 129.315 260.572 130.24 260.202C133.755 258.815 136.993 258.723 139.675 259.093C143.745 259.648 146.335 261.405 146.335 261.405C146.335 261.405 147.075 282.865 154.66 302.198C162.245 321.623 173.345 333.093 173.345 333.093C173.345 333.093 173.808 335.59 172.605 338.457Z" fill="#E1ECFF"/>
<path d="M172.605 338.457C168.535 334.85 160.765 326.617 153.273 310.707C144.3 291.652 140.693 267.14 139.768 259.093C143.838 259.648 146.428 261.405 146.428 261.405C146.428 261.405 147.168 282.865 154.753 302.198C162.338 321.623 173.438 333.093 173.438 333.093C173.438 333.093 173.808 335.59 172.605 338.457Z" fill="#F8FBFF"/>
<path d="M167.24 344.1C165.39 345.025 163.91 345.21 163.91 345.21C163.91 345.21 150.868 332.538 139.49 309.968C128.113 287.49 127.28 261.59 127.28 261.59C128.298 261.035 129.315 260.572 130.24 260.202C130.888 268.527 133.94 295.908 146.89 317.368C155.77 331.983 162.893 339.938 167.24 344.1Z" fill="#B6FFC6"/>
<path d="M193.048 357.42C193.048 357.42 188.238 360.288 182.595 358.993C176.953 357.698 174.825 355.848 174.825 355.848C174.825 355.848 172.975 353.072 174.363 351.5C174.455 351.407 174.455 351.407 174.548 351.315C176.305 349.742 178.71 349.465 178.71 349.465C178.71 349.465 182.04 352.055 184.445 352.887C186.85 353.72 191.105 352.888 192.678 353.905C193.418 354.368 193.51 355.2 193.418 355.94C193.418 356.772 193.048 357.42 193.048 357.42Z" fill="#E1ECFF"/>
<path d="M193.048 357.42C193.048 357.42 188.238 360.288 182.595 358.993C176.953 357.698 174.825 355.848 174.825 355.848C174.825 355.848 172.975 353.072 174.363 351.5C176.028 353.072 180.005 356.495 184.63 357.05C188.423 357.512 191.568 356.68 193.418 355.94C193.418 356.772 193.048 357.42 193.048 357.42Z" fill="#B6FFC6"/>
<path d="M191.29 354.83C186.48 355.57 183.058 354.275 180.468 352.888C177.878 351.5 176.86 349.743 176.86 349.743C176.86 349.743 176.86 347.615 178.248 346.505C178.988 345.858 180.19 345.58 182.04 346.135C182.04 346.135 185.648 349.28 191.66 347.152C197.673 345.025 197.303 343.73 198.598 343.36C199.523 343.083 200.725 344.47 201.003 346.043C201.188 346.783 201.095 347.522 200.818 348.17C199.8 350.205 196.1 353.998 191.29 354.83Z" fill="#E1ECFF"/>
<path d="M191.29 354.83C186.48 355.57 183.058 354.275 180.468 352.888C177.878 351.5 176.86 349.743 176.86 349.743C176.86 349.743 176.86 347.615 178.248 346.505C180.468 348.725 185.278 352.703 190.55 351.685C195.73 350.668 199.43 347.615 201.095 346.043C201.28 346.783 201.188 347.522 200.91 348.17C199.8 350.205 196.1 353.998 191.29 354.83Z" fill="#B6FFC6"/>
<path d="M190.273 348.725C185.648 349.465 182.41 348.17 180.005 346.875C177.508 345.58 176.583 343.915 176.583 343.915C176.583 343.915 176.583 341.88 177.878 340.77C178.618 340.122 179.728 339.845 181.485 340.4C181.485 340.4 184.908 343.36 190.643 341.325C196.378 339.29 196.008 338.088 197.21 337.718C198.043 337.44 199.245 338.827 199.523 340.307C199.708 340.955 199.615 341.695 199.338 342.343C198.32 344.378 194.805 347.985 190.273 348.725Z" fill="#E1ECFF"/>
<path d="M190.273 348.725C185.648 349.465 182.41 348.17 180.005 346.875C177.508 345.58 176.583 343.915 176.583 343.915C176.583 343.915 176.583 341.88 177.878 340.77C179.913 342.897 184.538 346.69 189.533 345.673C194.435 344.655 197.95 341.787 199.523 340.307C199.708 340.955 199.615 341.695 199.338 342.343C198.32 344.378 194.805 347.985 190.273 348.725Z" fill="#B6FFC6"/>
<path d="M189.625 344.1C185.648 345.395 182.503 344.747 180.19 343.915C177.785 343.082 176.768 341.788 176.768 341.788C176.768 341.788 176.49 339.937 177.6 338.827C178.155 338.18 179.173 337.81 180.838 337.995C180.838 337.995 184.26 340.123 189.163 337.625C194.065 335.035 193.603 334.018 194.62 333.463C195.36 333.093 196.563 334.11 197.025 335.405C197.21 335.96 197.303 336.608 197.118 337.255C196.378 339.105 193.603 342.805 189.625 344.1Z" fill="#E1ECFF"/>
<path d="M189.625 344.1C185.648 345.395 182.503 344.747 180.19 343.915C177.785 343.082 176.768 341.788 176.768 341.788C176.768 341.788 176.49 339.937 177.6 338.827C179.728 340.4 184.26 343.175 188.608 341.602C192.955 340.03 195.73 336.978 196.933 335.405C197.118 335.96 197.21 336.608 197.025 337.255C196.378 339.105 193.603 342.805 189.625 344.1Z" fill="#B6FFC6"/>
<path d="M186.388 339.66C186.388 339.66 186.11 341.233 185.463 343.36C184.723 345.765 183.613 348.725 181.948 351.038C181.208 351.963 180.468 352.795 179.728 353.443C177.23 355.755 174.918 356.218 174.918 356.218C174.918 356.218 167.795 349.373 165.76 347.06C163.725 344.84 162.06 342.435 162.06 342.435C162.06 342.435 161.505 339.845 162.06 337.07C162.338 335.59 162.893 334.017 164.003 332.815C164.558 332.26 165.205 331.797 165.76 331.427C168.813 329.855 172.328 331.058 172.328 331.058C172.328 331.058 179.173 335.312 182.225 336.977C185.278 338.642 186.388 339.66 186.388 339.66Z" fill="#E1ECFF"/>
<path d="M186.388 339.66C186.388 339.66 186.11 341.233 185.463 343.36C184.075 342.62 181.578 341.048 178.248 338.643C173.9 335.59 167.703 332.445 165.76 331.427C168.813 329.855 172.328 331.058 172.328 331.058C172.328 331.058 179.173 335.312 182.225 336.977C185.278 338.642 186.388 339.66 186.388 339.66Z" fill="#F8FBFF"/>
<path d="M179.728 353.35C177.23 355.57 174.918 356.125 174.918 356.125C174.918 356.125 167.795 349.188 165.76 346.968C163.725 344.748 162.06 342.343 162.06 342.343C162.06 342.343 161.505 339.752 162.06 336.977C164.928 340.215 172.605 348.54 177.97 352.055C178.618 352.61 179.265 352.98 179.728 353.35Z" fill="#B6FFC6"/>
<path d="M153.273 329.67C151.885 329.577 151.053 329.115 150.96 329.115C150.405 328.837 150.22 328.098 150.498 327.543C150.775 326.988 151.423 326.71 151.978 326.988C152.07 327.08 154.66 328.283 158.083 326.063C161.505 323.843 162.06 321.068 162.06 320.975C162.153 320.328 162.708 319.865 163.355 320.05C163.91 320.143 164.373 320.79 164.28 321.438C164.28 321.623 163.633 325.322 159.285 328.19C156.788 329.577 154.753 329.762 153.273 329.67Z" fill="#B6FFC6"/>
<path d="M143.375 311.077C141.433 310.892 140.138 310.245 140.045 310.245C139.49 309.967 139.305 309.228 139.583 308.673C139.86 308.118 140.508 307.84 140.97 308.118C141.063 308.21 144.3 309.782 148.555 307.84C152.718 305.99 153.458 303.308 153.458 303.123C153.643 302.475 154.198 302.105 154.753 302.29C155.308 302.475 155.678 303.122 155.493 303.77C155.493 303.955 154.475 307.655 149.295 310.06C146.983 311.078 144.948 311.262 143.375 311.077Z" fill="#B6FFC6"/>
<path d="M136.345 290.265C133.663 290.08 132.275 288.97 132.183 288.877C131.72 288.507 131.628 287.768 131.998 287.213C132.368 286.658 133.015 286.565 133.57 287.027C133.663 287.027 135.698 288.6 140.23 287.675C145.965 286.473 147.538 284.253 147.63 284.16C148 283.605 148.648 283.512 149.203 283.882C149.665 284.252 149.758 284.993 149.388 285.548C149.203 285.825 147.168 288.508 140.693 289.988C138.935 290.358 137.548 290.357 136.345 290.265Z" fill="#B6FFC6"/>
<path d="M150.035 274.818C150.035 274.818 144.485 277.685 136.623 277.593C132.738 277.5 130.055 276.76 128.298 275.927C126.448 275.095 125.615 274.262 125.615 274.262C125.615 274.262 125.708 272.597 125.43 267.14C124.505 249.935 132.275 247.715 137.363 247.53C138.565 247.53 139.86 247.715 140.97 248.085C144.67 249.38 147.815 252.71 149.018 256.78C150.59 262.423 150.035 274.818 150.035 274.818Z" fill="#134D20"/>
<path d="M138.658 258.167C132.83 261.312 130.425 259.277 130.425 259.277C130.425 259.277 129.038 263.995 128.39 273.337C128.298 274.262 128.298 275.187 128.205 275.927C126.355 275.095 125.523 274.262 125.523 274.262C125.523 274.262 125.615 272.597 125.338 267.14C124.413 249.935 132.183 247.715 137.27 247.53C138.473 247.53 139.768 247.715 140.878 248.085C142.358 250.583 144.023 255.3 138.658 258.167Z" fill="#2D6C3B"/>
<path d="M256.78 287.027C256.503 288.507 256.225 289.895 255.855 291.282C253.635 299.885 249.75 306.822 244.293 311.355C228.66 324.397 207.2 331.335 179.635 313.482C157.62 299.237 137.363 266.955 130.055 254.467C128.205 251.322 127.188 249.38 127.188 249.38C127.188 249.38 139.86 248.732 159.84 239.575C168.073 235.782 177.6 230.51 188.053 223.295C206.09 210.715 216.543 198.967 222.555 189.81C229.678 179.08 230.695 172.05 230.695 172.05C230.695 172.05 232.453 175.287 235.505 182.41C239.205 191.197 244.755 205.812 251.045 227.457C257.798 250.767 259.648 271.395 256.78 287.027Z" fill="#E1ECFF"/>
<path d="M235.505 182.41C233.377 186.665 230.417 191.66 226.532 197.118C218.947 207.478 207.662 219.41 191.012 230.14C180.745 236.8 171.587 241.61 163.54 245.125C147.075 252.433 135.697 254.098 129.962 254.375C128.112 251.23 127.095 249.287 127.095 249.287C127.095 249.287 139.767 248.64 159.747 239.482C167.98 235.69 177.507 230.418 187.96 223.203C205.997 210.623 216.45 198.875 222.462 189.718C229.585 178.988 230.602 171.957 230.602 171.957C230.602 171.957 232.545 175.38 235.505 182.41Z" fill="#134D20"/>
<path d="M255.855 291.282C253.635 299.885 249.75 306.823 244.293 311.355C228.66 324.398 207.2 331.335 179.635 313.482C157.62 299.237 137.363 266.955 130.055 254.468C128.205 251.323 127.188 249.38 127.188 249.38C127.188 249.38 139.86 248.732 159.84 239.575C167.703 251.785 185.093 277.038 202.205 291.93C222.093 309.32 244.755 299.052 255.855 291.282Z" fill="#B6FFC6"/>
<path d="M163.54 245.218C147.075 252.525 135.697 254.19 129.962 254.468C128.112 251.323 127.095 249.38 127.095 249.38C127.095 249.38 139.767 248.732 159.747 239.575C160.857 241.24 162.152 243.183 163.54 245.218Z" fill="#10411B"/>
<path d="M254.19 278.055C251.877 268.528 248.732 256.502 244.755 243.737C238.372 223.017 231.157 207.015 227.18 200.077C232.73 191.66 233.747 188.237 233.747 188.237C233.747 188.237 235.135 190.827 237.54 196.377C240.407 203.222 244.755 214.692 249.657 231.62C255.022 249.75 256.502 265.845 254.19 278.055Z" fill="#F8FBFF"/>
<path d="M235.505 182.41C233.377 186.665 230.417 191.66 226.532 197.118C225.052 194.25 223.757 191.753 222.555 189.718C229.677 178.988 230.695 171.957 230.695 171.957C230.695 171.957 232.545 175.38 235.505 182.41Z" fill="#2D6C3B"/>
<path d="M206.553 285.825C206.553 285.825 198.228 292.115 181.3 299.145C176.583 301.087 171.958 302.752 167.795 304.14C167.425 303.77 167.055 303.4 166.685 303.03C154.845 291.653 144.208 276.945 136.993 265.845C136.53 265.197 136.16 264.55 135.79 263.995C136.53 263.81 148.925 260.665 164.003 253.913C179.635 246.975 183.613 243.83 183.613 243.83L206.553 285.825Z" fill="#E1ECFF"/>
<path d="M203.963 285.732C203.963 285.732 196.47 291.745 180.56 298.035C175.658 299.978 170.755 301.643 166.593 303.03C154.753 291.653 144.115 276.945 136.9 265.845L138.38 265.475C138.38 265.475 150.035 262.515 164.465 256.132C178.895 249.657 182.965 247.53 182.965 247.53L203.963 285.732Z" fill="#134D20"/>
<path d="M162.707 289.34C162.43 289.34 162.06 289.247 161.875 289.062L151.7 279.998L151.052 281.94C150.775 282.587 150.127 282.957 149.48 282.68C148.832 282.402 148.462 281.755 148.74 281.107L150.035 277.407C150.22 277.037 150.497 276.667 150.867 276.575C151.237 276.482 151.7 276.575 152.07 276.852L161.042 284.807L160.58 281.2C160.487 280.645 160.765 280.09 161.32 279.905L191.937 266.677C192.585 266.4 193.325 266.677 193.602 267.325C193.88 267.972 193.602 268.712 192.955 268.99L163.17 281.848L164.002 287.86C164.095 288.415 163.817 288.877 163.355 289.155C163.077 289.247 162.892 289.34 162.707 289.34Z" fill="#FFCE94"/>
<path d="M230.695 172.05C230.695 172.05 229.307 181.947 218.67 195.73C212.565 203.685 203.315 212.935 189.44 222.37C166.685 237.91 148.74 244.477 138.01 247.345C130.98 249.195 127.095 249.38 127.095 249.38C127.095 249.38 103.877 209.79 107.67 173.9C108.687 164.557 111.555 156.787 115.902 150.405C119.047 145.687 122.932 141.802 127.372 138.565C140.23 129.315 157.527 126.077 174.362 128.112C205.072 131.905 230.695 172.05 230.695 172.05Z" fill="#FEC272"/>
<path d="M230.695 172.05C230.695 172.05 230.047 176.49 226.532 183.52C224.775 187.035 222.277 191.197 218.67 195.822C212.565 203.777 203.315 213.028 189.44 222.463C164.927 239.113 145.965 245.495 135.697 247.993C130.147 249.288 127.095 249.473 127.095 249.473C127.095 249.195 127.187 227.92 161.782 200.91C196.562 173.623 230.695 172.05 230.695 172.05Z" fill="#FCAD4F"/>
<path d="M226.533 183.52C224.775 187.035 222.278 191.197 218.67 195.822C212.565 203.777 203.315 213.027 189.44 222.462C164.928 239.112 145.965 245.495 135.698 247.993C139.583 239.112 148.093 225.978 167.24 210.993C190.735 192.585 213.952 185.925 226.533 183.52Z" fill="#F99D3A"/>
<path d="M230.695 172.05C230.695 172.05 229.308 181.948 218.67 195.73C212.75 185.555 207.478 179.172 207.478 179.172C207.478 179.172 193.88 191.475 182.78 182.688C171.68 173.807 180.005 157.528 180.005 157.528C180.005 157.528 168.813 145.503 150.59 141.618C141.525 139.675 133.293 138.843 127.28 138.565C140.138 129.315 157.435 126.077 174.27 128.112C205.073 131.905 230.695 172.05 230.695 172.05Z" fill="#FFDBB3"/>
<path d="M138.102 247.345C131.072 249.195 127.187 249.38 127.187 249.38C127.187 249.38 103.97 209.79 107.762 173.9C108.78 164.558 111.647 156.788 115.995 150.405C114.977 161.043 114.145 185.647 122.655 212.195C126.91 225.7 132.645 237.725 138.102 247.345Z" fill="#FFDBB3"/>
<path d="M243.737 408.48C243.737 409.035 243.737 409.59 243.645 410.237C243.275 415.695 226.532 416.713 214.877 417.268C203.407 417.823 191.29 414.585 195.452 410.793C195.545 410.7 195.545 410.7 195.637 410.607C198.597 408.11 204.332 405.243 210.715 402.93C214.415 401.543 218.207 400.432 222 399.507C226.995 398.305 237.17 395.9 240.5 398.398C241.147 398.86 241.702 399.6 242.165 400.432C243.182 402.375 243.737 405.243 243.737 408.48Z" fill="#134D20"/>
<path d="M243.737 408.48C243.737 409.035 243.737 409.59 243.645 410.238C243.275 415.695 226.532 416.713 214.877 417.268C203.407 417.823 191.29 414.585 195.452 410.793C197.95 412.273 203.407 414.03 214.785 413.568C230.325 412.92 239.76 410.33 243.737 408.48Z" fill="#2D6C3B"/>
<path d="M242.072 400.432C241.332 401.172 240.13 401.912 238.742 402.652C234.302 404.872 220.797 407.277 212.565 405.89C208.957 405.242 209.235 404.133 210.622 402.93C214.322 401.543 218.115 400.432 221.907 399.507C226.902 398.305 237.077 395.9 240.407 398.398C241.055 398.86 241.61 399.6 242.072 400.432Z" fill="#10411B"/>
<path d="M221.26 356.032C224.96 379.712 238.465 397.842 238.465 397.842C238.465 397.842 237.17 399.692 234.58 401.357C233.47 402.097 232.175 402.652 230.603 403.207C228.198 403.947 225.608 403.947 223.388 403.762C220.705 403.485 218.763 402.93 218.763 402.93C218.763 402.93 195.73 373.237 192.863 339.382C189.995 305.527 208.218 288.507 208.218 288.507C208.218 288.507 208.403 288.415 208.588 288.23C210.438 287.027 218.577 282.587 228.382 288.137C229.123 288.507 229.77 288.97 230.325 289.34C237.818 294.242 238.927 299.237 238.927 299.237C238.927 299.237 233.84 303.677 230.048 310.337C226.255 316.812 217.56 332.352 221.26 356.032Z" fill="#E1ECFF"/>
<path d="M221.26 356.032C224.96 379.712 238.465 397.843 238.465 397.843C238.465 397.843 237.17 399.692 234.58 401.357C227.828 392.015 211.64 363.71 212.195 336.793C212.658 312.188 225.423 295.075 230.418 289.34C237.91 294.242 239.02 299.238 239.02 299.238C239.02 299.238 233.933 303.678 230.14 310.337C226.255 316.812 217.56 332.352 221.26 356.032Z" fill="#B6FFC6"/>
<path d="M223.295 403.67C220.612 403.392 218.67 402.838 218.67 402.838C218.67 402.838 195.637 373.145 192.77 339.29C189.902 305.435 208.125 288.415 208.125 288.415C208.125 288.415 208.31 288.323 208.495 288.138C204.98 295.353 197.117 314.037 197.857 335.127C198.782 362.23 210.53 383.135 218.762 396.455C220.335 399.138 221.907 401.542 223.295 403.67Z" fill="#F8FBFF"/>
<path d="M205.72 379.62C205.442 379.62 205.072 379.528 204.887 379.25C204.425 378.788 204.332 377.955 204.795 377.493C204.887 377.4 207.57 374.625 212.935 372.96C218.392 371.295 224.405 373.145 224.682 373.238C225.33 373.423 225.7 374.163 225.515 374.81C225.33 375.458 224.59 375.828 223.942 375.643C223.85 375.643 218.392 373.977 213.675 375.365C208.957 376.845 206.645 379.158 206.645 379.25C206.46 379.528 206.09 379.62 205.72 379.62Z" fill="#B6FFC6"/>
<path d="M196.192 350.02C195.73 350.02 195.36 349.835 195.082 349.373C194.712 348.725 194.897 347.985 195.545 347.615C195.73 347.522 201.187 344.377 207.385 344.1C213.675 343.73 218.947 347.338 219.132 347.523C219.687 347.893 219.872 348.725 219.41 349.28C219.04 349.835 218.207 350.02 217.652 349.557C217.56 349.557 212.935 346.32 207.477 346.598C201.835 346.875 196.84 349.743 196.747 349.835C196.655 350.02 196.377 350.02 196.192 350.02Z" fill="#B6FFC6"/>
<path d="M221.537 325.6C221.26 325.6 220.89 325.508 220.705 325.23C220.612 325.138 213.767 318.94 206.922 318.107C200.262 317.275 196.192 320.143 196.192 320.235C195.637 320.605 194.805 320.512 194.435 319.957C194.065 319.402 194.157 318.57 194.712 318.2C194.897 318.015 199.615 314.593 207.292 315.61C214.877 316.628 222.092 323.103 222.462 323.38C223.017 323.843 223.017 324.675 222.555 325.138C222.185 325.415 221.815 325.6 221.537 325.6Z" fill="#B6FFC6"/>
<path d="M302.29 299.33C302.29 299.33 300.532 305.343 294.982 308.95C289.432 312.558 286.287 312.927 286.287 312.927C286.287 312.927 282.68 312.373 282.68 310.06C282.68 309.968 282.68 309.875 282.68 309.782C282.865 307.285 284.622 305.065 284.622 305.065C284.622 305.065 289.34 304.233 291.93 302.938C294.52 301.643 297.295 297.48 299.33 297.018C300.347 296.833 300.995 297.295 301.55 297.943C302.105 298.59 302.29 299.33 302.29 299.33Z" fill="#E1ECFF"/>
<path d="M302.29 299.33C302.29 299.33 300.532 305.342 294.982 308.95C289.432 312.557 286.287 312.927 286.287 312.927C286.287 312.927 282.68 312.373 282.68 310.06C285.177 309.875 291.097 309.135 295.26 305.805C298.682 303.123 300.625 299.885 301.55 297.85C302.105 298.59 302.29 299.33 302.29 299.33Z" fill="#B6FFC6"/>
<path d="M298.867 298.868C295.537 303.4 291.745 305.158 288.6 306.268C285.455 307.378 283.327 306.915 283.327 306.915C283.327 306.915 281.662 305.343 281.94 303.4C282.032 302.29 282.772 301.087 284.715 299.977C284.715 299.977 289.987 299.33 293.317 292.855C296.647 286.38 295.26 285.733 296.092 284.438C296.647 283.513 298.682 283.605 300.07 284.438C300.717 284.808 301.272 285.455 301.457 286.195C302.29 288.508 302.197 294.335 298.867 298.868Z" fill="#E1ECFF"/>
<path d="M298.867 298.868C295.537 303.4 291.745 305.158 288.6 306.268C285.455 307.378 283.327 306.915 283.327 306.915C283.327 306.915 281.662 305.342 281.94 303.4C285.362 303.215 292.392 302.29 295.815 297.202C299.237 292.207 299.977 286.935 300.07 284.437C300.717 284.807 301.272 285.455 301.457 286.195C302.29 288.507 302.197 294.335 298.867 298.868Z" fill="#B6FFC6"/>
<path d="M292.67 296C289.525 300.255 285.917 302.013 282.865 303.03C279.905 304.048 277.87 303.585 277.87 303.585C277.87 303.585 276.297 302.105 276.575 300.255C276.667 299.238 277.407 298.035 279.257 297.018C279.257 297.018 284.252 296.462 287.397 290.265C290.542 284.16 289.247 283.513 289.987 282.218C290.542 281.385 292.392 281.385 293.78 282.218C294.427 282.588 294.89 283.143 295.167 283.883C295.907 286.195 295.815 291.745 292.67 296Z" fill="#E1ECFF"/>
<path d="M292.67 296C289.525 300.255 285.917 302.013 282.865 303.03C279.905 304.048 277.87 303.585 277.87 303.585C277.87 303.585 276.297 302.105 276.575 300.255C279.812 300.07 286.472 299.237 289.802 294.427C293.04 289.71 293.687 284.715 293.872 282.31C294.52 282.68 294.982 283.235 295.26 283.975C295.907 286.195 295.815 291.745 292.67 296Z" fill="#B6FFC6"/>
<path d="M290.172 304.232C290.265 306.915 289.617 309.135 288.877 310.8C287.86 312.927 286.75 314.037 286.75 314.037C286.75 314.037 263.347 322.27 238.742 301.735C226.07 291.19 215.895 277.408 209.05 266.585C202.575 256.318 198.967 248.64 198.967 248.64C198.967 248.64 197.025 242.628 200.632 237.448C201.742 235.783 203.407 234.21 205.997 232.915C210.345 230.695 213.952 230.51 216.82 231.25C221.63 232.452 224.312 236.06 224.312 236.06C224.312 236.06 227.92 244.015 233.285 253.82C239.575 265.197 248.27 279.073 256.595 285.548C272.042 297.573 284.9 292.947 284.9 292.947C284.9 292.947 286.287 294.335 287.675 296.462C288.692 298.405 290.08 301.18 290.172 304.232Z" fill="#E1ECFF"/>
<path d="M233.007 253.635C231.065 256.688 227.272 261.22 220.242 263.81C215.71 265.568 211.732 266.215 208.865 266.493C202.39 256.225 198.782 248.548 198.782 248.548C198.782 248.548 195.452 238.095 205.72 232.73C217.282 226.718 224.035 235.875 224.035 235.875C224.035 235.875 227.642 243.923 233.007 253.635Z" fill="#B6FFC6"/>
<path d="M288.785 310.707C287.767 312.835 286.657 313.945 286.657 313.945C286.657 313.945 263.255 322.178 238.65 301.643C225.977 291.098 215.802 277.315 208.957 266.493C202.482 256.225 198.875 248.548 198.875 248.548C198.875 248.548 196.932 242.535 200.54 237.355C203.592 244.293 216.635 272.597 233.192 288.877C252.155 307.47 262.422 309.783 280.645 310.523C283.605 310.615 286.38 310.707 288.785 310.707Z" fill="#B6FFC6"/>
<path d="M287.397 296.37C282.68 297.757 276.112 298.775 269.267 296.648C256.502 292.67 246.05 284.622 235.782 269.175C227.365 256.41 219.225 237.54 216.635 231.157C221.445 232.36 224.127 235.968 224.127 235.968C224.127 235.968 227.735 243.922 233.1 253.727C239.39 265.105 248.085 278.98 256.41 285.455C271.857 297.48 284.715 292.855 284.715 292.855C284.715 292.855 286.01 294.15 287.397 296.37Z" fill="#F8FBFF"/>
<path d="M223.295 281.848C220.982 281.848 219.502 281.293 219.41 281.293C218.762 281.015 218.392 280.275 218.67 279.627C218.947 278.98 219.687 278.61 220.335 278.888C220.52 278.98 224.867 280.46 230.695 277.315C236.522 274.077 237.91 268.343 237.91 268.343C238.095 267.695 238.742 267.233 239.39 267.418C240.037 267.603 240.5 268.25 240.315 268.898C240.222 269.175 238.742 275.743 231.805 279.535C228.567 281.385 225.515 281.848 223.295 281.848Z" fill="#B6FFC6"/>
<path d="M240.962 302.567C240.222 302.567 239.667 302.012 239.667 301.272C239.667 300.532 240.222 299.977 240.962 299.977C241.055 299.977 246.79 299.885 250.027 295.907C253.357 291.837 252.71 286.103 252.71 286.01C252.617 285.27 253.172 284.715 253.82 284.623C254.467 284.53 255.115 285.085 255.207 285.732C255.207 286.01 255.947 292.577 251.97 297.48C247.992 302.567 241.24 302.567 240.962 302.567Z" fill="#B6FFC6"/>
<path d="M261.312 313.39C260.85 313.39 260.295 313.112 260.11 312.557C259.832 311.91 260.202 311.17 260.85 310.893C260.942 310.893 266.122 308.765 267.51 303.123C268.897 297.388 266.955 294.057 266.862 293.965C266.492 293.41 266.677 292.577 267.232 292.207C267.787 291.837 268.62 292.022 268.99 292.577C269.082 292.762 271.672 296.925 269.915 303.677C268.157 310.615 261.96 313.113 261.682 313.205C261.59 313.39 261.497 313.39 261.312 313.39Z" fill="#B6FFC6"/>
<path d="M233.747 242.535C233.747 242.535 233.562 243.645 232.915 245.31C231.62 248.455 228.567 253.635 221.63 258.168C210.9 265.105 201.372 262.145 201.372 262.145C201.372 262.145 194.527 253.172 193.14 240.777C192.307 233.655 197.025 228.105 203.13 225.422C207.662 223.48 212.935 223.11 217.19 224.96C227.272 229.492 233.747 242.535 233.747 242.535Z" fill="#134D20"/>
<path d="M233.747 242.535C233.747 242.535 233.562 243.645 232.915 245.31C232.915 245.218 232.822 245.217 232.822 245.125C224.22 233.747 217.467 231.435 217.467 231.435C217.467 231.435 214.97 237.355 206.737 233.932C201.002 231.62 202.02 227.55 203.222 225.422C207.755 223.48 213.027 223.11 217.282 224.96C227.272 229.492 233.747 242.535 233.747 242.535Z" fill="#2D6C3B"/>
<path d="M121.36 193.603C119.602 193.325 117.937 194.435 117.567 196.1C116.735 199.615 115.44 205.628 114.885 210.253C114.422 214.138 114.237 217.375 114.145 219.595C114.052 221.167 115.255 222.647 116.827 222.925C118.677 223.202 120.342 221.907 120.527 220.057C120.712 217.19 121.175 212.842 122.192 207.847C123.117 203.13 123.765 199.8 124.227 197.58C124.505 195.73 123.21 193.973 121.36 193.603Z" fill="#134D20"/>
<path d="M105.357 203.5C105.82 201.65 107.762 200.633 109.52 201.465C112.295 202.668 116.365 204.425 120.25 205.812C124.227 207.2 127.927 208.587 130.24 209.512C131.812 210.067 132.645 211.732 132.275 213.397C131.812 215.155 129.962 216.265 128.205 215.71C125.152 214.877 120.342 213.305 115.255 211.178C110.722 209.235 108.132 207.755 106.56 206.83C105.542 206.09 105.08 204.795 105.357 203.5Z" fill="#134D20"/>
<path d="M161.135 171.032C158.915 170.662 156.788 172.142 156.233 174.362C155.215 178.987 153.735 186.757 153.088 192.862C152.625 197.95 152.348 202.112 152.348 204.98C152.255 207.107 153.828 208.865 155.863 209.142C158.268 209.512 160.395 207.755 160.58 205.35C160.765 201.65 161.32 196.007 162.338 189.532C163.355 183.335 164.188 178.987 164.65 176.12C165.205 173.715 163.54 171.402 161.135 171.032Z" fill="#134D20"/>
<path d="M140.6 184.353C141.155 181.948 143.745 180.653 145.965 181.578C149.573 183.058 154.845 185.185 159.933 186.943C165.113 188.7 169.923 190.365 172.975 191.475C175.01 192.215 176.213 194.342 175.658 196.47C175.103 198.782 172.698 200.263 170.385 199.615C166.408 198.598 160.21 196.748 153.55 194.065C147.63 191.66 144.208 189.81 142.265 188.607C140.97 187.59 140.23 185.925 140.6 184.353Z" fill="#134D20"/>
<path d="M474.248 347.8C474.248 347.8 478.965 349.187 482.388 353.165C485.81 357.235 486.273 363.802 486.273 363.802L504.958 355.107C504.958 355.107 495.523 358.715 492.378 352.425C489.233 346.135 499.685 336.145 499.685 336.145C499.685 336.145 488.123 345.58 483.59 344.193C479.058 342.805 478.318 337.162 478.318 337.162L474.248 347.8Z" fill="#FEC272"/>
<path d="M456.58 345.672L459.91 345.765L465.09 307.84L453.343 305.62L456.58 345.672Z" fill="#D2E9FF"/>
<path d="M464.72 345.857L472.49 310.338L483.682 315.795L466.755 346.782L464.72 345.857Z" fill="#D2E9FF"/>
<path d="M94.5351 166.593L92.5926 170.848L51.9851 158.36L57.4426 142.357L94.5351 166.593Z" fill="#FEC272"/>
<path d="M100.64 152.532L97.0326 157.713L51.1526 122.747L63.8251 109.52L100.64 152.532Z" fill="#FEC272"/>
</svg>
