<svg width="40" height="38" viewBox="0 0 40 38" fill="none" xmlns="http://www.w3.org/2000/svg">
<g clip-path="url(#clip0_230_3120)">
<path fill-rule="evenodd" clip-rule="evenodd" d="M8.92685 30.9095C8.90087 31.0081 8.86843 31.1081 8.82952 31.2094C8.57288 31.8759 8.26567 32.2732 7.90718 32.4014C7.80415 32.4577 7.67607 32.5059 7.52247 32.5458L6.92935 32.7143C6.89282 32.7224 6.84505 32.7305 6.78652 32.7386C6.72798 32.7464 6.6952 32.7425 6.68794 32.7263C6.68044 32.7104 6.71721 32.6745 6.79752 32.6182L6.94036 32.5218C6.94761 32.5137 7.08296 32.4254 7.34685 32.2571C8.10832 31.7592 8.48929 31.3702 8.48929 31.0891C8.41553 31.1214 8.31695 31.1373 8.19238 31.1373C7.86316 31.0812 7.69808 30.9366 7.69808 30.7037C7.69808 30.5273 7.77863 30.2785 7.93996 29.9573C8.12284 29.6042 8.28394 29.4276 8.42302 29.4276C8.5771 29.4276 8.71057 29.4919 8.82413 29.6201C8.93746 29.7488 8.99413 29.8971 8.99413 30.0656C9.00103 30.1192 9.00476 30.2017 9.00511 30.3133C9.12786 30.2926 9.22872 30.2351 9.30793 30.1407C9.32222 30.1326 9.34572 30.1044 9.37798 30.056C9.41047 30.0076 9.43374 29.9835 9.44825 29.9835L9.513 30.0319C9.53466 30.0481 9.55977 30.056 9.58857 30.056C9.71115 30.056 9.80816 29.9916 9.88073 29.8627C9.93073 29.766 9.96299 29.7176 9.97797 29.7176C9.99963 29.7338 10.0356 29.7581 10.086 29.79C10.2155 29.8225 10.3416 29.7016 10.4644 29.4276C10.4999 29.4276 10.5436 29.4477 10.5941 29.488C10.6588 29.472 10.7056 29.4558 10.7344 29.4396C10.7704 29.5445 10.7883 29.6208 10.7883 29.6692C10.7883 29.7822 10.7704 29.8708 10.7344 29.9352C10.6263 30.056 10.5107 30.1485 10.3883 30.2131L10.0535 30.3944C10.039 30.3944 9.95631 30.4265 9.8047 30.4909L9.68581 30.5395L9.49134 30.648L9.38351 30.6844C9.31223 30.7084 9.15972 30.7833 8.92685 30.9095ZM17.3142 30.6922L17.33 30.66C17.33 31.324 17.5377 31.6557 17.9534 31.6557C18.1647 31.6557 18.3505 31.5716 18.5113 31.4036C18.6496 31.2279 18.7881 31.0558 18.9266 30.8879C18.9702 30.8563 18.9958 30.8321 19.003 30.816C19.0194 30.7944 19.0336 30.7761 19.0456 30.761C19.0905 30.6219 19.1571 30.4718 19.2449 30.3107C19.526 29.8007 19.8138 29.5456 20.1092 29.5456L20.2172 29.5576C20.224 29.5808 20.2301 29.604 20.2355 29.6272C20.3354 29.6671 20.3943 29.687 20.4121 29.687C20.51 29.687 20.6149 29.5862 20.7269 29.3841C20.7828 29.2833 20.8248 29.2367 20.8527 29.2445C20.9086 29.2601 20.9122 29.3375 20.8632 29.4773C20.8422 29.5471 20.8143 29.621 20.7794 29.6986C20.5972 30.1333 20.3982 30.3508 20.1816 30.3508V30.3438C20.1438 30.3361 20.0979 30.3168 20.0441 30.2861C19.9722 30.2449 19.9218 30.2201 19.893 30.2121C19.8138 30.1955 19.7222 30.2305 19.6177 30.3168C19.5129 30.4034 19.4609 30.4918 19.4609 30.5823L19.4575 30.5844C19.4756 30.6444 19.5355 30.7517 19.6374 30.9061C19.7612 31.094 19.8237 31.1918 19.8237 31.1999C19.8237 31.2879 19.7666 31.4099 19.6537 31.5656C19.5409 31.7216 19.4444 31.7994 19.3642 31.7994C19.3203 31.7994 19.242 31.7756 19.1292 31.7276C19.0158 31.6795 18.9301 31.6557 18.8718 31.6557C18.7627 31.6557 18.6678 31.7078 18.5878 31.8114C18.551 31.8597 18.4817 31.9793 18.3796 32.1714C18.3069 32.3152 18.2411 32.4231 18.1828 32.495C17.9935 32.7432 17.8035 32.867 17.6142 32.867C17.3519 32.867 17.1547 32.719 17.0237 32.4231C16.9216 32.1914 16.8707 31.9155 16.8707 31.5957L16.8898 31.5568C16.8835 31.558 16.8771 31.5585 16.8707 31.5585C16.8707 31.0085 16.9768 30.0275 17.1892 28.6162C17.2402 28.4009 17.387 28.0141 17.6286 27.4558L17.6724 27.432C17.6797 27.4558 17.6762 27.5197 17.6614 27.6233L17.6176 27.9344L17.431 29.3935C17.3652 29.912 17.3318 30.3228 17.3318 30.6257C17.3259 30.6482 17.3201 30.6704 17.3142 30.6922ZM24.5619 30.0597C24.6667 29.9505 24.7434 29.841 24.792 29.7316C24.9372 29.3739 25.0349 29.1297 25.0855 28.9995C25.1941 28.7392 25.3388 28.609 25.52 28.609C25.6575 28.609 25.7733 28.6822 25.8673 28.8287C26.0048 28.5686 26.0879 28.4385 26.1173 28.4385C26.1608 28.4385 26.2108 28.487 26.2691 28.5847C26.327 28.6822 26.3559 28.7598 26.3559 28.8165C26.3559 29.0117 26.3089 29.1867 26.215 29.3411C26.1064 29.5201 25.9684 29.6097 25.8022 29.6097C25.7515 29.6097 25.6828 29.5893 25.596 29.5487C25.5092 29.508 25.44 29.4874 25.3895 29.4874C25.2809 29.4874 25.1904 29.569 25.1182 29.7316C24.9372 30.13 24.836 30.3497 24.8142 30.3904C24.6896 30.614 24.568 30.8045 24.449 30.962C24.4313 31.0175 24.4117 31.0734 24.39 31.1296C24.1325 31.7974 23.8241 32.1955 23.4643 32.324C23.3609 32.3804 23.2324 32.4287 23.0782 32.4686L22.483 32.6375C22.4463 32.6456 22.3984 32.6537 22.3396 32.6618C22.2809 32.6696 22.248 32.6657 22.2407 32.6495C22.2332 32.6336 22.27 32.5976 22.3507 32.5412L22.494 32.4446C22.5013 32.4365 22.6371 32.348 22.902 32.1793C23.6662 31.6805 24.0486 31.2907 24.0486 31.009C23.9745 31.0414 23.8756 31.0573 23.7506 31.0573C23.4202 31.0012 23.2545 30.8563 23.2545 30.6229C23.2545 30.4462 23.3353 30.1969 23.4972 29.875C23.6808 29.5213 23.8425 29.3443 23.9821 29.3443C24.1367 29.3443 24.2706 29.4088 24.3846 29.5372C24.4984 29.6662 24.5552 29.8147 24.5552 29.9836C24.5579 30.0046 24.5602 30.0299 24.5619 30.0597ZM32.7584 30.375V30.56C32.7584 31.0795 32.9078 31.3389 33.2067 31.3389C33.2711 31.1553 33.3494 30.9434 33.4418 30.7037C33.6196 30.7439 33.7193 30.8876 33.7405 31.135C33.7405 31.4309 33.6836 31.7183 33.5698 31.9981C33.4134 32.3737 33.203 32.5612 32.9399 32.5612C32.7906 32.5612 32.6553 32.4795 32.534 32.3156C32.4129 32.1519 32.3455 31.9841 32.3312 31.8122C32.3171 31.6405 32.3098 31.5427 32.3098 31.5186V31.2909L32.326 31.257C32.3206 31.2578 32.3152 31.2582 32.3098 31.2582C32.3098 30.7105 32.4158 29.7336 32.628 28.3282C32.679 28.1138 32.8257 27.7287 33.0672 27.1727L33.1109 27.1489C33.1182 27.1727 33.1147 27.2363 33.0999 27.3394L33.0562 27.6493L32.8697 29.1023C32.8039 29.6186 32.7705 30.0277 32.7705 30.3293C32.7665 30.3447 32.7625 30.3599 32.7584 30.375ZM36.7898 31.2578C36.7868 31.2581 36.7838 31.2582 36.7808 31.2582C36.7808 30.7105 36.8868 29.7336 37.099 28.3282C37.1501 28.1138 37.2968 27.7287 37.5382 27.1727L37.582 27.1489C37.5892 27.1727 37.5857 27.2363 37.571 27.3394L37.5272 27.6493L37.3407 29.1023C37.275 29.6186 37.2415 30.0277 37.2415 30.3293C37.2385 30.341 37.2354 30.3527 37.2324 30.3643C37.2346 30.3667 37.237 30.3691 37.2393 30.3717C37.2393 30.6496 37.2612 30.8757 37.3047 31.05C37.4066 31.3276 37.6064 31.4665 37.9049 31.4665C38.1013 31.4665 38.2757 31.3951 38.4288 31.2522C38.6107 31.0778 38.727 30.9828 38.7777 30.9669C38.7996 30.9589 38.8468 30.9547 38.9197 30.9547C38.9778 30.9627 39.029 30.9669 39.0727 30.9669C39.1381 30.9669 39.1853 30.9547 39.2144 30.9311C39.3016 30.8677 39.367 30.7804 39.4107 30.6692C39.4252 30.6138 39.4435 30.5543 39.4652 30.4907C39.5161 30.4987 39.5671 30.5025 39.6185 30.5025C39.7057 30.5025 39.7892 30.3758 39.8693 30.1217C39.9056 30.0109 39.9346 29.9553 39.9565 29.9553C39.9856 29.9553 40 29.9908 40 30.0622C40 30.2844 39.9418 30.5185 39.8255 30.7644C39.6873 31.058 39.5271 31.2045 39.3454 31.2045C39.2581 31.3475 39.2035 31.4309 39.1818 31.4546C39.0872 31.5736 38.9995 31.6331 38.9197 31.6331C38.8324 31.6174 38.7633 31.6094 38.7124 31.6094C38.5889 31.6094 38.403 31.784 38.1557 32.1329C37.9596 32.4185 37.7414 32.5612 37.5011 32.5612C37.0209 32.5612 36.7808 32.1409 36.7808 31.2998C36.7838 31.2857 36.7868 31.2717 36.7898 31.2578ZM23.3125 4.48518C23.3325 4.53956 23.3612 4.58945 23.3658 4.62637C24.3974 6.52533 24.8477 8.86732 24.4611 11.0626C24.1259 13.3036 22.9654 15.386 21.2746 16.6401C19.65 17.9098 17.6183 18.498 15.6519 18.255C13.1167 18.0366 10.8503 16.2507 9.46881 13.9025C8.62195 12.3993 7.65152 10.9602 6.42195 9.82825C5.4394 8.97426 4.14474 8.35695 2.89483 8.7268C1.79686 8.97884 0.864491 9.72884 0 10.4928C0.570085 8.59696 1.76161 6.72547 3.5639 6.20146C4.70661 5.80118 5.90085 6.09299 7.03949 6.34656C7.1739 5.33526 7.98686 4.58668 8.86347 4.46295C9.41449 4.31022 9.9844 4.34371 10.5477 4.3728C10.1514 4.75315 9.65601 5.06176 9.47279 5.64692C9.19872 6.47487 9.4972 7.35786 9.84474 8.09575C10.2667 8.99105 10.8151 9.87556 10.8991 10.9099C10.9603 11.5728 10.5396 12.0877 10.188 12.5535C10.5246 13.3677 11.1747 13.9868 11.8995 14.3411C12.8657 14.8254 13.9187 15.0254 14.9597 15.1797C16.8475 15.2226 18.8657 14.7183 20.288 13.2366C21.1076 12.3046 21.6869 11.0215 21.6261 9.68467C21.7263 7.21276 20.0965 5.04802 18.1789 4.0642C16.9997 3.46835 15.7075 3.2041 14.4183 3.23014C13.6922 3.24531 12.7354 2.88939 12.2401 3.69444C12.2414 3.15974 12.1858 2.50904 12.6364 2.16523C13.1901 1.77573 13.8782 1.67327 14.5201 1.72221C14.5281 1.99877 14.7835 2.29211 15.0318 2.13623C15.2719 2.08586 15.2896 1.80931 15.2814 1.58474C14.8892 1.58932 14.4983 1.61985 14.1089 1.67022C14.1252 1.54964 14.1591 1.30666 14.1753 1.18599C14.6151 0.267891 15.6112 0.000494301 16.4703 0.000494301C18.6322 -0.0254535 20.866 0.970677 22.2586 2.87107C22.5922 3.3553 22.9492 3.82132 23.2266 4.33884C23.2464 4.3936 23.2753 4.44321 23.3125 4.48518ZM19.5754 5.89742C20.4548 6.57417 20.7223 7.84532 20.9489 8.95288C17.5737 8.93761 14.1971 8.96967 10.8232 8.93761C10.5951 8.70227 10.4702 8.37697 10.3224 8.07905C10.0279 7.39458 9.89218 6.64905 9.88684 5.89284C13.1153 5.89446 16.3454 5.88521 19.5754 5.89742ZM39.954 5.85161C39.8905 5.98755 39.8292 6.12664 39.7709 6.26554C39.418 7.031 38.7543 7.52286 38.0853 7.8911C36.7961 8.55868 35.3711 8.77409 33.9718 8.92081C30.9916 8.98196 28.0087 8.92081 25.027 8.94818C25.0255 7.88957 24.7962 6.84154 24.4583 5.85772C29.6236 5.86688 34.7888 5.87909 39.954 5.85161ZM36.819 9.45701C36.2371 10.3064 35.5381 11.0871 34.6585 11.5346C33.1345 12.3458 31.4231 12.4315 29.7729 12.5765C28.0263 12.5933 26.2808 12.5765 24.5357 12.5843C24.9197 11.608 25.1722 10.534 25.1071 9.46006C29.0115 9.46922 32.916 9.46617 36.819 9.45701ZM21.0899 9.67554C20.9529 10.2591 20.9433 10.8778 20.7181 11.4338C20.5647 11.8921 20.2607 12.2511 19.9594 12.5932C16.8597 12.5932 13.7587 12.578 10.659 12.5995C10.8951 12.3488 11.0961 12.0633 11.2846 11.7684C11.5955 11.0885 11.404 10.3232 11.1313 9.67391C14.4507 9.68164 17.7705 9.67697 21.0899 9.67554ZM35.9933 30.5588L35.8643 31.1551C35.7497 31.5365 35.6566 31.7922 35.5851 31.9218C35.4485 32.1814 35.2729 32.36 35.0582 32.4572L34.6708 32.64C34.4989 32.7211 34.3307 32.7616 34.1655 32.7616C34.1297 32.7616 34.1082 32.7453 34.101 32.7129C34.0795 32.64 34.1799 32.5059 34.4024 32.3113C34.4739 32.2465 34.6172 32.1206 34.8322 31.9339C35.1118 31.6905 35.341 31.3906 35.5205 31.0334C35.5636 30.9523 35.6566 30.6642 35.7999 30.1693L35.9289 29.7311C36.0004 29.4798 36.0577 29.3539 36.1013 29.3539C36.1365 29.4108 36.1549 29.4514 36.1549 29.4756C36.1549 29.7029 36.1012 30.064 35.9933 30.5588ZM36.2881 27.9227C36.1589 28.2087 36.0368 28.3517 35.9219 28.3517C35.8423 28.2782 35.7274 28.1758 35.5766 28.0453C35.4257 27.9148 35.3501 27.8246 35.3501 27.7755L35.3717 27.7267C35.4149 27.6206 35.4938 27.4243 35.6087 27.138C35.6375 27.0728 35.7094 26.9298 35.8249 26.7091L35.8679 26.6478C35.8961 26.6807 35.9469 26.7216 36.0189 26.7704C36.1553 26.885 36.238 26.9664 36.2668 27.0155C36.3456 27.1301 36.396 27.2404 36.4176 27.3465C36.4397 27.4855 36.396 27.6776 36.2881 27.9227ZM30.1047 30.5527C30.1047 30.6966 30.0608 30.8363 29.9726 30.9719C29.7973 31.2436 29.6697 31.3874 29.5892 31.4032C29.5745 31.4032 29.5413 31.3833 29.4906 31.3434C29.322 31.2156 29.2343 31.1437 29.2271 31.1277C29.1174 31.0478 29.0555 31.0079 29.0408 31.0079C28.9678 30.9522 28.9271 30.8962 28.9201 30.8402L29.1724 30.2172C29.2526 30.0656 29.322 29.9416 29.3805 29.846L29.4466 29.7381C29.4974 29.762 29.5745 29.8061 29.6769 29.8698C29.801 29.9738 29.8887 30.0536 29.9399 30.1094C30.0348 30.2133 30.086 30.3173 30.0938 30.421C30.1005 30.4531 30.1047 30.4969 30.1047 30.5527ZM31.3331 31.7387C30.9747 32.9367 30.3822 33.7831 29.5563 34.2782C29.2343 34.4701 28.8692 34.5657 28.4596 34.5657C28.006 34.5657 27.6549 34.412 27.4066 34.1045C27.158 33.7971 27.0339 33.3919 27.0339 32.8887C27.0339 32.098 27.3444 31.1199 27.9658 29.9538C28.039 29.818 28.0937 29.7542 28.1304 29.762C28.1449 29.77 28.1486 29.8141 28.1416 29.8939C28.1266 29.9738 28.1119 30.0417 28.0974 30.0975L27.7357 30.9599C27.5604 31.3755 27.4723 31.7348 27.4723 32.0381C27.4723 32.8768 27.8966 33.296 28.7445 33.296C29.6512 33.296 30.3678 32.8485 30.8942 31.9544C31.0623 31.6747 31.15 31.3514 31.1573 30.9841L31.1792 30.1216C31.1865 29.8818 31.2484 29.5984 31.3658 29.271L31.5851 28.8038C31.6435 28.676 31.691 28.5923 31.7275 28.5521C31.7642 28.5923 31.7787 28.6441 31.7714 28.7079L31.7165 29.1271L31.6618 29.7262C31.6618 30.0778 31.6071 30.5169 31.4974 31.0439C31.4317 31.3633 31.3768 31.5948 31.3331 31.7387ZM25.5922 32.4491C25.3726 32.8363 25.263 33.1449 25.263 33.3744L25.4444 33.5523C25.5583 33.6709 25.6149 33.7579 25.6149 33.8131C25.6149 33.924 25.5842 34.0285 25.5242 34.1276C25.4633 34.2265 25.384 34.276 25.2858 34.276C25.1044 34.276 25.0137 34.1217 25.0137 33.8131C25.0137 33.6314 25.1158 33.2794 25.3199 32.7574C25.5315 32.2037 25.6981 31.939 25.819 31.9626C25.7433 32.1207 25.6679 32.283 25.5922 32.4491ZM22.141 28.1874C22.1559 28.1555 22.1889 28.0955 22.2406 28.0074C22.248 27.9913 22.2664 27.9674 22.2959 27.9352C22.3181 27.9755 22.3292 28.0074 22.3292 28.0313L22.2739 28.4393L22.2073 29.1114L22.0857 30.1793C22.034 30.6195 21.945 30.9837 21.8196 31.2714L21.565 31.8477C21.4099 32.1915 21.2878 32.3637 21.1992 32.3637L21.1659 32.2796C21.3948 31.4316 21.539 30.7356 21.5981 30.1915L21.6755 29.4355L21.7974 29.0634L22.141 28.1874ZM20.5791 36.0225C20.4216 36.2696 20.2893 36.3932 20.1814 36.3932C20.1743 36.3932 20.0814 36.2975 19.9026 36.1064C19.7231 35.9149 19.6338 35.8115 19.6338 35.7954C19.6338 35.7639 19.7231 35.5763 19.9026 35.2335C20.0599 34.9309 20.1528 34.7793 20.1814 34.7793C20.2101 34.7793 20.2817 34.839 20.3966 34.9585C20.6111 35.1898 20.7185 35.3851 20.7185 35.5445C20.7185 35.7199 20.672 35.879 20.5791 36.0225ZM20.0097 37.5286C19.8525 37.7757 19.7201 37.8993 19.6123 37.8993C19.6052 37.8993 19.512 37.8036 19.3332 37.6125C19.1545 37.4213 19.0649 37.3176 19.0649 37.3015C19.0649 37.2697 19.1545 37.0824 19.3332 36.7399C19.4908 36.437 19.5837 36.2856 19.6123 36.2856C19.6409 36.2856 19.7124 36.3454 19.8273 36.4649C20.042 36.6959 20.1494 36.8912 20.1494 37.0506C20.1494 37.226 20.1029 37.3853 20.0097 37.5286ZM19.5157 36.0225C19.3584 36.2696 19.2259 36.3932 19.1187 36.3932C19.1112 36.3932 19.018 36.2975 18.8392 36.1064C18.6604 35.9149 18.5709 35.8115 18.5709 35.7954C18.5709 35.7639 18.6604 35.5763 18.8392 35.2335C18.9967 34.9309 19.0897 34.7793 19.1187 34.7793C19.1469 34.7793 19.2188 34.839 19.3332 34.9585C19.548 35.1898 19.6551 35.3851 19.6551 35.5445C19.6551 35.7199 19.6087 35.879 19.5157 36.0225ZM17.8959 37.5163C17.7635 37.7916 17.638 37.9293 17.5202 37.9293C17.4392 37.8585 17.3215 37.7599 17.167 37.6343C17.0124 37.5087 16.935 37.4218 16.935 37.3748L16.9571 37.3276C17.0014 37.2254 17.0822 37.0365 17.1999 36.7609C17.2294 36.6981 17.3031 36.5604 17.4208 36.348L17.4649 36.289C17.4943 36.3207 17.5459 36.36 17.6201 36.407C17.7598 36.5173 17.8445 36.5959 17.874 36.6429C17.9548 36.7533 18.0063 36.8595 18.0285 36.9616C18.0506 37.0955 18.0063 37.2804 17.8959 37.5163ZM16.7579 37.5871C16.6255 37.8624 16.5004 38 16.3827 38C16.3012 37.9293 16.1834 37.8309 16.0289 37.705C15.8744 37.5794 15.7969 37.4928 15.7969 37.4456L15.8191 37.3983C15.8634 37.2962 15.9441 37.1072 16.0619 36.8319C16.0913 36.7691 16.1651 36.6312 16.2833 36.419L16.3273 36.36C16.3563 36.3914 16.4083 36.4307 16.4821 36.4777C16.6217 36.588 16.7065 36.6667 16.736 36.7139C16.8167 36.824 16.8683 36.9302 16.8905 37.0324C16.9131 37.1665 16.8683 37.3511 16.7579 37.5871ZM15.226 30.0563C15.3875 29.6385 15.4684 29.3569 15.4684 29.2123C15.4684 29.1238 15.3986 28.9148 15.2589 28.5851C15.134 28.3521 15.0752 28.2192 15.082 28.1871C15.2295 27.6644 15.3546 27.2786 15.4574 27.0294C15.6116 27.0774 15.7403 27.2546 15.8437 27.56C15.9319 27.8092 15.9759 28.0423 15.9759 28.2594C15.9759 28.5489 15.8877 28.951 15.7109 29.4655C15.6227 29.7228 15.4795 30.1166 15.281 30.6475C15.281 30.7359 15.384 30.8364 15.5898 30.9489C15.7807 31.0935 15.8767 31.3148 15.8767 31.6121C15.8767 32.1831 15.7311 32.7839 15.4409 33.4152C15.1505 34.046 14.7956 34.5187 14.3761 34.8321C14.0675 35.0652 13.7216 35.1819 13.3395 35.1819C12.8762 35.1819 12.523 35.001 12.2803 34.639C12.0599 34.3175 11.9492 33.8955 11.9492 33.3727C11.9492 32.8904 12.082 32.2956 12.3466 31.5881C12.376 31.5155 12.4642 31.2947 12.6112 30.9246C12.6262 30.8844 12.7071 30.7036 12.8541 30.382C13.0305 29.9882 13.137 29.7951 13.1737 29.8032C13.2108 29.8113 13.2219 29.8554 13.2068 29.9358C13.1847 30.0485 13.1626 30.1328 13.1407 30.1889L12.6112 31.5398C12.4421 31.9741 12.3574 32.3358 12.3574 32.6252C12.3574 33.4612 12.7548 33.8793 13.549 33.8793C13.9904 33.8793 14.4055 33.7545 14.7956 33.5055C15.2589 33.208 15.4905 32.8382 15.4905 32.3961C15.4905 32.3799 15.36 32.2836 15.0987 32.1066C14.8377 31.93 14.7074 31.765 14.7074 31.6121C14.7074 31.4273 14.7552 31.2182 14.8506 30.9849C15.0124 30.5989 15.1373 30.2897 15.226 30.0563ZM15.1219 37.5163C14.9895 37.7916 14.864 37.9293 14.7463 37.9293C14.6652 37.8585 14.5475 37.7599 14.393 37.6343C14.2385 37.5087 14.161 37.4218 14.161 37.3748L14.1831 37.3276C14.2274 37.2254 14.3082 37.0365 14.4259 36.7609C14.4554 36.6981 14.5291 36.5604 14.6469 36.348L14.6909 36.289C14.7203 36.3207 14.7719 36.36 14.8461 36.407C14.9858 36.5173 15.0706 36.5959 15.1 36.6429C15.1808 36.7533 15.2324 36.8595 15.2545 36.9616C15.2766 37.0955 15.2324 37.2804 15.1219 37.5163ZM13.9839 37.5871C13.8515 37.8624 13.7265 38 13.6087 38C13.5272 37.9293 13.4094 37.8309 13.2549 37.705C13.1004 37.5794 13.023 37.4928 13.023 37.4456L13.0451 37.3983C13.0894 37.2962 13.1702 37.1072 13.2879 36.8319C13.3174 36.7691 13.3911 36.6312 13.5093 36.419L13.5534 36.36C13.5823 36.3914 13.6344 36.4307 13.7081 36.4777C13.8477 36.588 13.9325 36.6667 13.962 36.7139C14.0428 36.824 14.0943 36.9302 14.1165 37.0324C14.1391 37.1665 14.0943 37.3511 13.9839 37.5871ZM10.7883 29.3387C10.8254 29.3149 10.8701 29.267 10.9221 29.195C11.0854 28.9638 11.1633 28.6326 11.1559 28.202L11.1448 27.4004C11.1374 27.0017 11.1597 26.7345 11.2115 26.5988L11.6131 25.5338C11.6279 25.5261 11.6464 25.518 11.6688 25.51C11.6761 25.5261 11.6799 25.5579 11.6799 25.6058C11.6799 25.7415 11.6726 25.9287 11.6576 26.1679C11.6428 26.4473 11.6352 26.6389 11.6352 26.7425C11.6205 27.3406 11.5946 27.7914 11.5573 28.0943C11.4758 28.7088 11.3123 29.1792 11.0668 29.5062C11.0371 29.5461 10.9442 29.6538 10.7883 29.8294V29.3387ZM13.0683 23.6624L14.4693 22.4208C14.739 22.1794 15.0603 21.8702 15.4328 21.4922C15.535 21.3881 15.8229 21.0823 16.2973 20.5762C16.8008 20.0376 17.0743 19.7402 17.1187 19.6839C17.1187 19.7243 17.111 19.7603 17.0963 19.7924C17.0015 20.2746 16.6041 20.9015 15.9036 21.6733C15.5823 22.0271 15.097 22.5011 14.4473 23.0957C14.4182 23.12 13.8782 23.5862 12.8277 24.4944L12.0726 25.1454C11.7658 25.4107 11.6055 25.531 11.5908 25.507C11.7074 25.1535 11.8605 24.8641 12.0502 24.639C12.2257 24.4381 12.5647 24.1127 13.0683 23.6624ZM10.4724 26.1252C10.3405 26.4039 10.2154 26.5433 10.0981 26.5433C10.0174 26.4717 9.90002 26.3719 9.74608 26.2446C9.59213 26.1174 9.51493 26.0295 9.51493 25.9819L9.53699 25.9341C9.58111 25.8306 9.6616 25.6393 9.77893 25.3602C9.80826 25.2966 9.88171 25.1572 9.99905 24.9421L10.0429 24.8823C10.0723 24.9144 10.1237 24.9542 10.1976 25.0018C10.3367 25.1135 10.4212 25.1932 10.4505 25.2407C10.531 25.3525 10.5824 25.46 10.6045 25.5635C10.6265 25.699 10.5824 25.8862 10.4724 26.1252ZM9.90002 24.6434C9.76814 24.9224 9.64282 25.0618 9.52596 25.0618C9.50414 25.0618 9.38633 24.9659 9.17349 24.7747C9.01955 24.6395 8.94258 24.5477 8.94258 24.5001L8.96463 24.4523C9.00852 24.3488 9.08924 24.1575 9.20658 23.8784C9.23591 23.8148 9.30913 23.6754 9.42646 23.4603L9.47058 23.4005C9.49991 23.4326 9.5513 23.4724 9.62499 23.52C9.76438 23.6317 9.84863 23.7114 9.87796 23.759C9.95868 23.8707 10.0101 23.9783 10.0321 24.0817C10.054 24.2172 10.0101 24.4044 9.90002 24.6434ZM9.33846 26.1968C9.20658 26.4756 9.08197 26.615 8.96463 26.615C8.88344 26.5433 8.76611 26.4438 8.61216 26.3163C8.45822 26.189 8.38102 26.1014 8.38102 26.0535L8.40308 26.0057C8.44719 25.9023 8.52768 25.7109 8.64502 25.4321C8.67435 25.3685 8.7478 25.2289 8.8656 25.014L8.90949 24.9542C8.93835 24.986 8.99021 25.0259 9.06366 25.0734C9.20282 25.1852 9.2873 25.2648 9.31664 25.3126C9.39713 25.4241 9.44852 25.5317 9.47058 25.6351C9.4931 25.7709 9.44852 25.9579 9.33846 26.1968ZM6.34755 30.5347L6.21889 31.1323C6.10463 31.5145 6.01185 31.7708 5.94055 31.9007C5.80435 32.161 5.6293 32.3399 5.41517 32.4373L5.02896 32.6205C4.85756 32.7018 4.68983 32.7425 4.52506 32.7425C4.48941 32.7425 4.46793 32.7261 4.46084 32.6936C4.43936 32.6205 4.53945 32.4861 4.76135 32.2911C4.83265 32.2262 4.97548 32.1 5.18984 31.9128C5.46864 31.6689 5.69717 31.3683 5.87611 31.0104C5.91907 30.9291 6.01185 30.6403 6.15468 30.1443L6.28334 29.7051C6.35464 29.4533 6.41177 29.3271 6.45519 29.3271C6.49038 29.3841 6.50867 29.4248 6.50867 29.4491C6.50867 29.6769 6.45519 30.0388 6.34755 30.5347ZM4.96345 28.538C4.89059 28.7061 4.84696 28.8024 4.83258 28.8263C4.77456 28.9226 4.72375 28.9708 4.68035 28.9708C4.60053 28.9065 4.54971 28.8745 4.5279 28.8745C4.3172 28.8745 4.05267 29.0351 3.73361 29.3557C3.34146 29.7485 3.14561 30.0252 3.14561 30.1855C3.14561 30.2498 3.17114 30.3177 3.22195 30.3901L3.41757 30.4983C3.70089 30.5866 3.84221 30.807 3.84221 31.1597C3.84221 31.5446 3.777 31.9715 3.6466 32.4405C3.51549 32.9095 3.35608 33.3043 3.16742 33.6252C2.68106 34.443 2.0608 34.8519 1.3062 34.8519C0.892228 34.8519 0.571543 34.7056 0.342515 34.4131C0.114183 34.1203 1.71172e-05 33.7413 1.71172e-05 33.2765C1.71172e-05 32.6029 0.170338 31.8614 0.511675 31.0514L1.07717 29.7042C1.15699 29.5119 1.215 29.4159 1.25166 29.4159C1.30248 29.4159 1.32778 29.4518 1.32778 29.5241C1.32778 29.5801 1.32058 29.6243 1.3062 29.6563C0.703808 31.1076 0.402382 32.0657 0.402382 32.5308C0.402382 32.8835 0.525598 33.1521 0.772725 33.3366C0.982957 33.4969 1.25538 33.5771 1.58883 33.5771C2.17683 33.5771 2.65948 33.3525 3.03702 32.9035C3.33426 32.5506 3.483 32.25 3.483 32.0017C3.483 31.9134 3.35956 31.8333 3.11313 31.7609C2.78641 31.6649 2.62305 31.4525 2.62305 31.1238C2.62305 30.5704 2.8841 29.9249 3.40666 29.1873C3.6097 28.9065 3.7951 28.6782 3.96194 28.5018C4.4193 28.0286 4.79266 27.7681 5.08318 27.7199C5.14839 27.7681 5.17739 27.8204 5.1702 27.8763C5.14119 28.0609 5.07228 28.2813 4.96345 28.538Z" fill="#233F9F"/>
</g>
<defs>
<clipPath id="clip0_230_3120">
<rect width="40" height="38" fill="white"/>
</clipPath>
</defs>
</svg>
